<svg xmlns="http://www.w3.org/2000/svg" viewBox="0 0 600 600" id="software-development"><linearGradient id="a" x1="245.414" x2="361.312" y1="105.498" y2="414.56" gradientUnits="userSpaceOnUse"><stop offset="0" stop-color="#cedcf9" stop-opacity="0"></stop><stop offset="1" stop-color="#c3d2ff"></stop></linearGradient><path fill="url(#a)" d="M547.402 215.093c-10.398 37.34-20.836 74.67-31.234 112.009-5.184 18.554-10.737 37.849-22.114 51.29-15.162 17.896-37.436 21.73-58.192 22.989-30.025 1.887-321.075 3.625-336.467 0-18.618-4.434-46.296-20.552-52.489-46.547-3.766-15.699 6.831-30.275 12.835-43.371C92.21 240.639 25.888 85.21 220.933 80.306c34.844-.876 68.76-9.107 99.254 9.847 14.922 9.277 28.587 22.08 44.498 28.222 22.084 8.548 45.936 3.315 68.43-3.415 22.504-6.701 45.327-14.87 68.33-11.934 22.993 2.965 46.656 20.162 52.849 48.215 4.674 21.04-1.13 43.27-6.892 63.852z"></path><path fill="#373a50" d="M194.794 263.996a.5.5 0 0 1-.5-.498l-.023-5a.5.5 0 0 1 .498-.502h.002a.5.5 0 0 1 .5.498l.023 5a.5.5 0 0 1-.498.502h-.002zm-.046-10a.5.5 0 0 1-.5-.498l-.023-5a.5.5 0 0 1 .498-.502h.002a.5.5 0 0 1 .5.498l.023 5a.5.5 0 0 1-.498.502h-.002zm302.08-7.764a.5.5 0 0 1-.5-.498l-.025-5a.5.5 0 0 1 .497-.502h.003a.5.5 0 0 1 .5.497l.025 5a.5.5 0 0 1-.497.503h-.003zm-302.125-2.236a.5.5 0 0 1-.5-.497l-.024-5a.5.5 0 0 1 .498-.503h.002a.5.5 0 0 1 .5.498l.024 5a.5.5 0 0 1-.498.502h-.002zm302.075-7.764a.5.5 0 0 1-.5-.498l-.025-5a.5.5 0 0 1 .497-.502h.003a.5.5 0 0 1 .5.497l.025 5a.5.5 0 0 1-.497.503h-.003zm-302.122-2.236a.5.5 0 0 1-.5-.497l-.023-5a.5.5 0 0 1 .498-.503h.002a.5.5 0 0 1 .5.498l.023 5a.5.5 0 0 1-.498.502h-.002zm302.072-7.764a.5.5 0 0 1-.5-.498l-.024-5a.5.5 0 0 1 .497-.502h.003a.5.5 0 0 1 .5.498l.024 5a.5.5 0 0 1-.497.502h-.003zm-302.118-2.236a.5.5 0 0 1-.5-.497l-.023-5a.5.5 0 0 1 .498-.503h.002a.5.5 0 0 1 .5.498l.023 5a.5.5 0 0 1-.498.502h-.002zm302.068-7.764a.5.5 0 0 1-.5-.497l-.024-5a.5.5 0 0 1 .497-.503.506.506 0 0 1 .503.498l.024 5a.5.5 0 0 1-.498.502h-.002zm-302.114-2.236a.5.5 0 0 1-.5-.497l-.023-5a.5.5 0 0 1 .498-.502h.002a.5.5 0 0 1 .5.497l.023 5a.5.5 0 0 1-.498.502h-.002zm302.064-7.764a.5.5 0 0 1-.5-.497l-.025-5a.5.5 0 0 1 .497-.503c.309-.029.501.221.503.498l.025 5a.5.5 0 0 1-.497.502h-.003zm-302.11-2.235a.5.5 0 0 1-.5-.498l-.023-5a.5.5 0 0 1 .498-.502h.002a.5.5 0 0 1 .5.497l.023 5a.5.5 0 0 1-.498.503h-.002zm302.06-7.765a.5.5 0 0 1-.5-.497l-.025-5a.5.5 0 0 1 .497-.503h.003a.5.5 0 0 1 .5.498l.026 5a.5.5 0 0 1-.498.502h-.002zm-302.106-2.235a.5.5 0 0 1-.5-.498l-.023-5a.5.5 0 0 1 .498-.502h.002a.5.5 0 0 1 .5.498l.023 5a.5.5 0 0 1-.498.502h-.002zm302.057-7.765a.5.5 0 0 1-.5-.497l-.026-5a.5.5 0 0 1 .497-.503h.003a.5.5 0 0 1 .5.498l.026 5a.5.5 0 0 1-.497.502h-.003zm-302.103-2.235a.5.5 0 0 1-.5-.498l-.023-5a.5.5 0 0 1 .498-.502h.002a.5.5 0 0 1 .5.498l.023 5a.5.5 0 0 1-.498.502h-.002zm302.053-7.764a.5.5 0 0 1-.5-.498l-.025-5a.5.5 0 0 1 .497-.502h.003a.5.5 0 0 1 .5.497l.025 5a.5.5 0 0 1-.497.503h-.003zm-302.1-2.236a.5.5 0 0 1-.5-.498l-.022-5a.5.5 0 0 1 .498-.502h.002a.5.5 0 0 1 .5.498l.022 5a.5.5 0 0 1-.498.502h-.002zm302.05-7.764a.5.5 0 0 1-.5-.498l-.025-5a.5.5 0 0 1 .497-.502c.231 0 .502.22.503.497l.025 5a.5.5 0 0 1-.497.503h-.003zm-302.096-2.236a.5.5 0 0 1-.5-.498l-.022-5a.5.5 0 0 1 .498-.502h.002a.5.5 0 0 1 .5.498l.022 5a.5.5 0 0 1-.498.502h-.002zm302.045-7.764a.5.5 0 0 1-.5-.498l-.024-5a.5.5 0 0 1 .497-.502c.281-.018.502.221.503.497l.024 5a.5.5 0 0 1-.498.503h-.002zm-302.09-2.236a.5.5 0 0 1-.5-.498l-.023-5a.5.5 0 0 1 .498-.502h.002a.5.5 0 0 1 .5.498l.023 5a.5.5 0 0 1-.499.502h-.001zm302.04-7.764a.5.5 0 0 1-.5-.498l-.024-5a.5.5 0 0 1 .497-.502h.003a.5.5 0 0 1 .5.497l.025 5a.5.5 0 0 1-.498.503h-.002zm-302.086-2.236a.5.5 0 0 1-.5-.497l-.024-5a.5.5 0 0 1 .498-.503h.002a.5.5 0 0 1 .5.498l.024 5a.5.5 0 0 1-.498.502h-.002zm302.037-7.764a.5.5 0 0 1-.5-.498l-.025-5a.5.5 0 0 1 .498-.502h.002a.5.5 0 0 1 .5.498l.025 5a.5.5 0 0 1-.498.502h-.002zm-302.083-2.236a.5.5 0 0 1-.5-.497l-.024-5a.5.5 0 0 1 .498-.503h.002a.5.5 0 0 1 .5.498l.024 5a.5.5 0 0 1-.498.502h-.002zm302.033-7.764a.5.5 0 0 1-.5-.497l-.024-5a.5.5 0 0 1 .498-.503h.002a.5.5 0 0 1 .5.498l.024 5a.5.5 0 0 1-.498.502h-.002zm-302.08-2.236a.5.5 0 0 1-.5-.497l-.023-5a.5.5 0 0 1 .498-.503h.002a.5.5 0 0 1 .5.498l.024 5a.5.5 0 0 1-.498.502h-.002zm302.03-7.764a.5.5 0 0 1-.5-.497c-.035-2.415.05-3.373-.145-4.934a.5.5 0 0 1 .992-.125c.206 1.65.117 2.63.153 5.054a.5.5 0 0 1-.497.502h-.003zm-302.076-2.235a.5.5 0 0 1-.5-.499c.02-.395-.157-2.304.573-5.08a.499.499 0 1 1 .967.255c-.667 2.54-.522 4.484-.54 4.822a.5.5 0 0 1-.498.502h-.002zm300.13-7.851a16.526 16.526 0 0 0-2.596-4.079.5.5 0 1 1 .756-.654 17.526 17.526 0 0 1 2.754 4.325.5.5 0 0 1-.914.408zm-297.876-1.753a.5.5 0 0 1-.164-.688 17.613 17.613 0 0 1 3.295-3.929.5.5 0 1 1 .664.747 16.609 16.609 0 0 0-3.108 3.706.5.5 0 0 1-.687.164zm291.885-5.407a.5.5 0 0 1-.269-.078 16.432 16.432 0 0 0-4.415-1.966.5.5 0 1 1 .268-.963 17.437 17.437 0 0 1 4.684 2.085.5.5 0 0 1-.268.922zM203.53 97.626a.5.5 0 0 1 .242-.664 17.428 17.428 0 0 1 4.919-1.451.501.501 0 0 1 .139.99 16.421 16.421 0 0 0-4.636 1.368.5.5 0 0 1-.664-.243zm275.22-1.287h-5a.5.5 0 1 1 0-1h5a.5.5 0 1 1 0 1zm-10 0h-5a.5.5 0 1 1 0-1h5a.5.5 0 1 1 0 1zm-10 0h-5a.5.5 0 1 1 0-1h5a.5.5 0 1 1 0 1zm-10 0h-5a.5.5 0 1 1 0-1h5a.5.5 0 1 1 0 1zm-10 0h-5a.5.5 0 1 1 0-1h5a.5.5 0 1 1 0 1zm-10 0h-5a.5.5 0 1 1 0-1h5a.5.5 0 1 1 0 1zm-10 0h-5a.5.5 0 1 1 0-1h5a.5.5 0 1 1 0 1zm-10 0h-5a.5.5 0 1 1 0-1h5a.5.5 0 1 1 0 1zm-10 0h-5a.5.5 0 1 1 0-1h5a.5.5 0 1 1 0 1zm-10 0h-5a.5.5 0 1 1 0-1h5a.5.5 0 1 1 0 1zm-10 0h-5a.5.5 0 1 1 0-1h5a.5.5 0 1 1 0 1zm-10 0h-5a.5.5 0 1 1 0-1h5a.5.5 0 1 1 0 1zm-10 0h-5a.5.5 0 1 1 0-1h5a.5.5 0 1 1 0 1zm-10 0h-5a.5.5 0 1 1 0-1h5a.5.5 0 1 1 0 1zm-10 0h-5a.5.5 0 1 1 0-1h5a.5.5 0 1 1 0 1zm-10 0h-5a.5.5 0 1 1 0-1h5a.5.5 0 1 1 0 1zm-10 0h-5a.5.5 0 1 1 0-1h5a.5.5 0 1 1 0 1zm-10 0h-5a.5.5 0 1 1 0-1h5a.5.5 0 1 1 0 1zm-10 0h-5a.5.5 0 1 1 0-1h5a.5.5 0 1 1 0 1zm-10 0h-5a.5.5 0 1 1 0-1h5a.5.5 0 1 1 0 1zm-10 0h-5a.5.5 0 1 1 0-1h5a.5.5 0 1 1 0 1zm-10 0h-5a.5.5 0 1 1 0-1h5a.5.5 0 1 1 0 1zm-10 0h-5a.5.5 0 1 1 0-1h5a.5.5 0 1 1 0 1zm-10 0h-5a.5.5 0 1 1 0-1h5a.5.5 0 1 1 0 1zm-10 0h-5a.5.5 0 1 1 0-1h5a.5.5 0 1 1 0 1zm-10 0h-5a.5.5 0 1 1 0-1h5a.5.5 0 1 1 0 1zm-10 0h-5a.5.5 0 1 1 0-1h5a.5.5 0 1 1 0 1z"></path><linearGradient id="b" x1="312.296" x2="293.764" y1="517.861" y2="392.966" gradientUnits="userSpaceOnUse"><stop offset="0" stop-color="#cedcf9" stop-opacity="0"></stop><stop offset="1" stop-color="#c3d2ff"></stop></linearGradient><path fill="url(#b)" d="M553.118 496.696c-19.197 48.683-219.214 14.073-242.826 6.842l-.09-.03c-5.234-1.618-10.787-1.868-16.131-.63-32.672 7.582-71.267 12.856-107.724 12.856-87.858 0-130.068-30.634-130.068-50.301 0-6.083 18.488-3.786 18.788-16.82.36-14.993-26.64-17.59-30.764-28.368-7.072-18.508 112.149-17.899 112.149-17.899h222.35s161.721-4.784 171.97 16.111c10.227 20.906-79.099 29.866-79.099 29.866s90.305 25.91 81.445 48.373z"></path><path fill="#373a50" d="M90.189 415.033h7.906v88.154h-7.906z"></path><path fill="#909eff" d="M143.088 408.77v7.082a2.962 2.962 0 0 1-2.962 2.962H63.167a2.962 2.962 0 0 1-2.962-2.962v-7.081a2.962 2.962 0 0 1 2.962-2.962h76.96a2.962 2.962 0 0 1 2.96 2.962z"></path><path fill="#909eff" d="m72.54 417.072-9.373 1.742a2.962 2.962 0 0 1-3.384-2.468l-14.603-92.85a2.962 2.962 0 0 1 2.467-3.384l9.374-1.743a2.962 2.962 0 0 1 3.384 2.468l14.603 92.85a2.962 2.962 0 0 1-2.468 3.385z"></path><path fill="#909eff" d="m107.534 418.814 9.373-1.742a2.962 2.962 0 0 0 2.468-3.385l-14.603-92.85a2.962 2.962 0 0 0-3.384-2.468H57.02a2.962 2.962 0 0 1 3.384 2.468l14.603 92.85a2.962 2.962 0 0 1-2.468 3.385l-9.373 1.742h44.367z"></path><path fill="#373a50" d="M124.887 510.647c-.288-1.666-1.66-2.991-3.4-3.141-13.05-1.124-25.994-9.302-25.994-9.302h-2.691s-12.945 8.178-25.995 9.302c-1.74.15-3.112 1.475-3.4 3.141h61.48zM170.988 493.178l-2.926 12.224a4.267 4.267 0 0 0 4.043 5.085c10.786.361 31.987.003 35.901-.031a.582.582 0 0 0 .576-.562c.174-3.74-2.31-6.117-5.97-7.956l-14.109-9.502a.154.154 0 0 0-.087-.022l-17.428.764z"></path><path fill="#ffdad9" d="M170.986 493.177c.158 3.622 17.589 2.86 17.43-.763l.345-14.315-16.321-.507-1.454 15.585z"></path><path fill="#111228" d="M131.517 367.383h38.336c15.593 0 27.808 13.41 26.355 28.936l-2.72 87.613c-.06 3.294-25.944 1.842-25.884-1.452l-4.51-78.528-61.26-27.78 4.093-17.106 25.59 8.317z"></path><path fill="#373a50" d="m133.73 493.178-2.927 12.224a4.267 4.267 0 0 0 4.044 5.085c10.786.361 31.986.003 35.9-.031a.582.582 0 0 0 .576-.562c.175-3.74-2.31-6.117-5.969-7.956l-14.11-9.502a.154.154 0 0 0-.086-.022l-17.428.764z"></path><path fill="#ffdad9" d="M133.728 493.177c.158 3.622 17.588 2.86 17.43-.763l.345-14.315-16.321-.507-1.454 15.585z"></path><path fill="#373a50" d="M108.287 368.338s47.312.286 56.644 12.149c12.548 15.952-.019 81.495-9.958 103.152-.09 3.2-24.77 2.517-24.681-.683l3.561-76.519-31.389-.239c-16.444-.125-29.86-13.19-30.446-29.625-.204-5.727.148-9.826.148-9.826l36.12 1.591z"></path><path fill="#ffdad9" d="M192.675 339.405s4.307-8 8.492-6.523c4.184 1.477 0 5.292 0 5.292s15.499-.459 13.406 6.926c-2.092 7.384-4.8 11.076-7.507 6.154-2.708-4.923-16.976-1.88-16.976-1.88"></path><path fill="#ff4129" d="m194.536 334.714-.816 13.709-.115 1.899s-46.15 6.54-61.138 2.902c-1.384-.347-2.51-.773-3.3-1.296-11.944-7.95-14.926-32.654-17.605-46.594-3.754-19.512 10.878-35.556 23.39-19.912 4.712 5.892 9.246 43.746 9.246 43.746l50.338 5.546z"></path><path fill="#c70000" d="m193.72 348.423-.115 1.899s-46.15 6.54-61.138 2.902c-2.183-2.228-3.576-5.236-4.223-8.306-.817-3.851-.586-7.844-.16-11.757a121.436 121.436 0 0 1 4.747-22.822c.63-2.023 1.686-5.218 3.807-6.168 3.026-1.357 2.688 4.126 2.937 5.901l2.822 20.134c.55 3.93 1.242 8.155 4.028 10.977 3.061 3.105 7.79 3.673 12.139 4.063 11.722 1.056 23.434 2.121 35.156 3.177z"></path><path fill="#ff4129" d="M139.637 337.82c-.16 8.473-.55 16.184-.878 21.65-.311 5.058-.577 8.19-.577 8.19-4.623 3.745-38.218 6.85-56.24 4.854-2.564-.284-4.8-.666-6.601-1.162-1.633-.462-2.902-1.003-3.71-1.65a3.137 3.137 0 0 1-.691-.737s-7.472-61.732.266-79.026c.505-1.145 1.082-2.095 1.739-2.822 7.64-8.5 48.298-18.687 60.046-2.769 6.105 8.28 7.027 33.071 6.646 53.471z"></path><path fill="#c70000" d="M139.637 337.82c-.16 8.473-.55 16.184-.878 21.65l-31.882-.479-22.033-.32c-1.863-.026-3.798-.035-5.457.8-2.902 1.463-4.037 5.04-4.144 8.278-.035 1.198.027 2.405.098 3.603-1.633-.462-2.902-1.003-3.71-1.65a3.137 3.137 0 0 1-.691-.737s-7.472-61.732.266-79.026c2.733-.426 5.483-.692 8.243-.595 6.974.249 12.76 2.778 16.212 8.82a59.522 59.522 0 0 1 7.382 22.166c.4 3.221.604 6.682 2.556 9.273 2.51 3.327 7.063 4.188 11.18 4.809l22.858 3.407z"></path><path fill="#ffdad9" d="M116.498 286.382c-12.355 4.246-19.8-11.404-19.8-11.404l-.35-24.289 8.652 5.083 8.138 4.788-.124 1.446-.619 7.244-.232 5.414s11.511 9.253 4.335 11.718z"></path><path fill="#fecdcb" d="m113.014 262.006-.619 7.244c-2.122-1.809-6.558-5.74-8.223-8.605-.648-1.123-.4-2.103.266-2.903l8.576 4.264z"></path><path fill="#ffdad9" d="M120.925 265.674c-10.528 1.824-23.323-9.885-24.898-11.333-.08-.097-.121-.131-.121-.131s-6.704-1.845-5.757-7.522c1.342-7.92 6.45-2.04 6.45-2.04l-3.085-14.755 6.715-8.001 27.148 5.854s.588 6.451.609 14.16c.039 10.467-1.756 22.85-7.06 23.768z"></path><path fill="#111228" d="M131.305 234.014c-3.493 2.76-22.901 9.013-27.56 1.42-1.065-1.737-3.76 10.433-5.108 10.974-1.35.541-2.037-1.76-2.037-1.76s-5.11-5.88-6.45 2.04c-.948 5.677 5.733 7.515 5.733 7.515s1.427 1.267 1.507 1.363l-.585 8.923c-13.698-11.972-16.585-30.267-8.93-39.668 7.652-9.387 11.385-9.299 19.859-7.666 8.474 1.633 12.325-4.249 18.52-.464 6.197 3.77 8.44 14.645 5.05 17.323z"></path><path fill="#ffdad9" d="M124.656 245.522c-.145-.98-.831-1.7-1.544-1.588-.703.1-1.155.977-1 1.956M114.58 245.587c-.145-.978-.842-1.698-1.544-1.587-.703.1-1.155.977-1.01 1.956"></path><path fill="#ffdad9" d="M121.613 245.968c-.208-1.382.537-2.397 1.426-2.53 1.094-.16 1.946.88 2.109 2.01l-.99.14c-.08-.563-.492-1.232-.971-1.16-.496.073-.666.857-.586 1.392l-.988.148zM111.53 246.034c-.215-1.432.573-2.403 1.436-2.53.984-.147 1.914.732 2.107 2.005l-.989.15c-.115-.756-.62-1.221-.97-1.166-.503.074-.677.849-.595 1.392l-.988.15z"></path><path fill="#111228" d="M112.025 245.96c.148.985.83 1.69 1.539 1.585.701-.096 1.155-.976 1.015-1.961-.149-.977-.838-1.69-1.54-1.586-.709.105-1.163.977-1.014 1.962zM122.107 245.894c.14.985.83 1.69 1.531 1.586.71-.097 1.163-.977 1.015-1.962-.14-.976-.83-1.69-1.54-1.585-.7.104-1.154.976-1.006 1.96zM124.938 243.248c-1.166-.406-1.657-.828-2.63-.193-.243.22-.519.437-.859.638a3.71 3.71 0 0 1 .454-1.06c.575-.748 1.562-.848 2.312-.277.327.237.545.552.723.892zM114.105 243.026c-1.169-.406-1.658-.827-2.63-.193-.243.22-.519.438-.859.639a3.71 3.71 0 0 1 .453-1.062c.579-.75 1.567-.843 2.313-.275.327.236.545.551.723.891zM118.61 244.83c.318 2.413.277 4.723.56 5.72.327 1.225 1.219 1.591 1.342 2.548.067.558-.154 1.073-.464 1.469-.328.388-.724.68-1.131.944.679-.652 1.403-1.475 1.216-2.347-.196-.814-1.082-1.153-1.445-2.48-.345-1.305-.161-4.83-.077-5.855z"></path><path fill="#fff" d="M116.859 258.325c.012 1.855 1.333 3.35 2.945 3.34 1.604-.011 2.906-1.523 2.894-3.378 0-.033-.009-.058-.01-.083-1.634.395-3.572.407-5.822.038 0 .025-.007.05-.007.083z"></path><path fill="#ebf2ff" d="M374.74 367.257v11.316c0 .958-.772 1.745-1.745 1.745H99.84a1.742 1.742 0 0 1-1.745-1.745v-11.316c0-.973.772-1.745 1.745-1.745h273.155c.973 0 1.745.772 1.745 1.745z"></path><linearGradient id="c" x1="350.29" x2="359.732" y1="445.48" y2="445.48" gradientUnits="userSpaceOnUse"><stop offset="0" stop-color="#d1deff"></stop><stop offset="1" stop-color="#b2c7ff"></stop></linearGradient><path fill="url(#c)" d="M350.29 380.314h9.441v130.332h-9.441z"></path><linearGradient id="d" x1="113.104" x2="122.549" y1="445.483" y2="445.483" gradientUnits="userSpaceOnUse"><stop offset="0" stop-color="#d1deff"></stop><stop offset="1" stop-color="#b2c7ff"></stop></linearGradient><path fill="url(#d)" d="M113.104 380.318h9.445v130.329h-9.445z"></path><path fill="#111228" d="M150.178 365.512H189.7l20.525-53.557h-4.023l-19.899 46.93-30.663 1.294a5.335 5.335 0 0 0-5.463 5.333z"></path><path fill="#373a50" d="M189.7 365.512h50.611l19.29-54.328-49.375.771z"></path><path fill="#ffdad9" d="M148.812 343.46s4.307-7.999 8.492-6.522c4.184 1.477 0 5.292 0 5.292s15.499-.459 13.407 6.926c-2.093 7.384-4.8 11.076-7.508 6.153-2.707-4.923-16.976-1.88-16.976-1.88"></path><path fill="#ff4129" d="M91.636 290.14c4.712 5.891 8.698 43.08 8.698 43.08l50.338 5.553-.928 15.609s-55.103 7.808-64.438 1.599c-11.946-7.946-14.927-32.647-17.61-46.593-3.753-19.508 11.425-34.897 23.94-19.248z"></path><linearGradient id="e" x1="290.191" x2="307.764" y1="215.767" y2="215.767" gradientTransform="translate(170.424)" gradientUnits="userSpaceOnUse"><stop offset="0" stop-color="#d1deff"></stop><stop offset="1" stop-color="#b2c7ff"></stop></linearGradient><path fill="url(#e)" d="M478.188 307.072a10.417 10.417 0 0 1-10.423 10.424h-7.15V114.038h7.184c5.395 0 9.826 4.108 10.338 9.375.08.795.04 60.612.051 183.66z"></path><path fill="#fff" d="M473.767 124.477v182.597c0 5.762-4.66 10.422-10.422 10.422H281.723c-5.763 0-10.431-4.66-10.431-10.422V124.477c0-5.762 4.668-10.43 10.43-10.43h181.623c5.763 0 10.422 4.668 10.422 10.43z"></path><linearGradient id="f" x1="100.873" x2="303.35" y1="124.586" y2="124.586" gradientTransform="translate(170.424)" gradientUnits="userSpaceOnUse"><stop offset="0" stop-color="#d1deff"></stop><stop offset="1" stop-color="#b2c7ff"></stop></linearGradient><path fill="url(#f)" d="M473.774 124.437v10.696H271.297v-10.696c0-5.744 4.645-10.397 10.389-10.397h181.7c5.735 0 10.388 4.653 10.388 10.397z"></path><path fill="#fff" d="M460.46 125.807a3.195 3.195 0 1 0 6.389 0 3.194 3.194 0 1 0-6.389 0zM451.877 125.807a3.195 3.195 0 1 0 6.388 0 3.194 3.194 0 1 0-6.388 0zM443.293 125.807a3.195 3.195 0 1 0 6.389 0 3.194 3.194 0 1 0-6.389 0z"></path><linearGradient id="g" x1="308.497" x2="309.228" y1="164.053" y2="219.139" gradientUnits="userSpaceOnUse"><stop offset="0" stop-color="#d1deff"></stop><stop offset="1" stop-color="#b2c7ff"></stop></linearGradient><path fill="url(#g)" d="M315.542 153.984h-14.386c-.565 0-1.025-.459-1.025-1.024s.46-1.025 1.025-1.025h14.386c.566 0 1.026.46 1.026 1.025s-.46 1.024-1.026 1.024z"></path><linearGradient id="h" x1="290.918" x2="291.65" y1="164.286" y2="219.372" gradientUnits="userSpaceOnUse"><stop offset="0" stop-color="#d1deff"></stop><stop offset="1" stop-color="#b2c7ff"></stop></linearGradient><path fill="url(#h)" d="M294.644 153.984h-7.752c-.566 0-1.026-.459-1.026-1.024s.46-1.025 1.026-1.025h7.752c.565 0 1.026.46 1.026 1.025s-.46 1.024-1.026 1.024z"></path><linearGradient id="i" x1="412.769" x2="413.5" y1="162.669" y2="217.755" gradientUnits="userSpaceOnUse"><stop offset="0" stop-color="#d1deff"></stop><stop offset="1" stop-color="#b2c7ff"></stop></linearGradient><path fill="url(#i)" d="M419.556 162.364h-13.61c-.565 0-1.026-.459-1.026-1.024 0-.566.46-1.025 1.026-1.025h13.61c.566 0 1.026.46 1.026 1.025s-.46 1.024-1.026 1.024z"></path><linearGradient id="j" x1="319.179" x2="319.91" y1="163.911" y2="218.997" gradientUnits="userSpaceOnUse"><stop offset="0" stop-color="#d1deff"></stop><stop offset="1" stop-color="#b2c7ff"></stop></linearGradient><path fill="url(#j)" d="M326.51 162.364h-14.73c-.566 0-1.026-.459-1.026-1.024 0-.566.46-1.025 1.025-1.025h14.732c.565 0 1.025.46 1.025 1.025s-.46 1.024-1.025 1.024z"></path><linearGradient id="k" x1="300.051" x2="300.782" y1="164.165" y2="219.251" gradientUnits="userSpaceOnUse"><stop offset="0" stop-color="#d1deff"></stop><stop offset="1" stop-color="#b2c7ff"></stop></linearGradient><path fill="url(#k)" d="M305.855 162.364h-11.683c-.565 0-1.025-.459-1.025-1.024 0-.566.46-1.025 1.025-1.025h11.683c.565 0 1.026.46 1.026 1.025s-.46 1.024-1.026 1.024z"></path><linearGradient id="l" x1="437.883" x2="438.614" y1="162.336" y2="217.421" gradientUnits="userSpaceOnUse"><stop offset="0" stop-color="#d1deff"></stop><stop offset="1" stop-color="#b2c7ff"></stop></linearGradient><path fill="url(#l)" d="M458.167 170.745h-40.372c-.565 0-1.026-.46-1.026-1.025s.46-1.025 1.026-1.025h40.372c.565 0 1.026.46 1.026 1.025s-.46 1.025-1.026 1.025z"></path><linearGradient id="m" x1="367.023" x2="367.755" y1="163.276" y2="218.362" gradientUnits="userSpaceOnUse"><stop offset="0" stop-color="#d1deff"></stop><stop offset="1" stop-color="#b2c7ff"></stop></linearGradient><path fill="url(#m)" d="M413.152 170.745h-92.086c-.565 0-1.025-.46-1.025-1.025s.46-1.025 1.025-1.025h92.086c.565 0 1.025.46 1.025 1.025s-.46 1.025-1.025 1.025z"></path><linearGradient id="n" x1="304.182" x2="304.914" y1="164.11" y2="219.196" gradientUnits="userSpaceOnUse"><stop offset="0" stop-color="#d1deff"></stop><stop offset="1" stop-color="#b2c7ff"></stop></linearGradient><path fill="url(#n)" d="M314.341 170.745h-20.169c-.565 0-1.025-.46-1.025-1.025s.46-1.025 1.025-1.025h20.17c.565 0 1.025.46 1.025 1.025s-.46 1.025-1.026 1.025z"></path><linearGradient id="o" x1="353.268" x2="353.999" y1="163.459" y2="218.545" gradientUnits="userSpaceOnUse"><stop offset="0" stop-color="#d1deff"></stop><stop offset="1" stop-color="#b2c7ff"></stop></linearGradient><path fill="url(#o)" d="M412.751 179.123H294.172c-.565 0-1.025-.459-1.025-1.024s.46-1.025 1.025-1.025h118.58c.565 0 1.025.46 1.025 1.025s-.46 1.024-1.026 1.024z"></path><linearGradient id="p" x1="435.94" x2="436.671" y1="162.361" y2="217.447" gradientUnits="userSpaceOnUse"><stop offset="0" stop-color="#d1deff"></stop><stop offset="1" stop-color="#b2c7ff"></stop></linearGradient><path fill="url(#p)" d="M458.167 187.503h-43.814c-.566 0-1.026-.459-1.026-1.024s.46-1.025 1.026-1.025h43.814c.565 0 1.026.46 1.026 1.025s-.46 1.024-1.026 1.024z"></path><linearGradient id="q" x1="359.357" x2="360.088" y1="163.378" y2="218.464" gradientUnits="userSpaceOnUse"><stop offset="0" stop-color="#d1deff"></stop><stop offset="1" stop-color="#b2c7ff"></stop></linearGradient><path fill="url(#q)" d="M404.985 187.503h-90.644c-.565 0-1.025-.459-1.025-1.024s.46-1.025 1.025-1.025h90.644c.566 0 1.026.46 1.026 1.025s-.46 1.024-1.026 1.024z"></path><linearGradient id="r" x1="301.318" x2="302.05" y1="164.148" y2="219.234" gradientUnits="userSpaceOnUse"><stop offset="0" stop-color="#d1deff"></stop><stop offset="1" stop-color="#b2c7ff"></stop></linearGradient><path fill="url(#r)" d="M309.057 187.503h-14.885c-.565 0-1.025-.459-1.025-1.024s.46-1.025 1.025-1.025h14.885c.566 0 1.026.46 1.026 1.025s-.46 1.024-1.026 1.024z"></path><linearGradient id="s" x1="363.688" x2="364.419" y1="163.32" y2="218.406" gradientUnits="userSpaceOnUse"><stop offset="0" stop-color="#d1deff"></stop><stop offset="1" stop-color="#b2c7ff"></stop></linearGradient><path fill="url(#s)" d="M406.427 195.884h-84.64c-.565 0-1.026-.46-1.026-1.025s.46-1.025 1.026-1.025h84.64c.565 0 1.025.46 1.025 1.025s-.46 1.025-1.025 1.025z"></path><linearGradient id="t" x1="304.729" x2="305.461" y1="164.103" y2="219.189" gradientUnits="userSpaceOnUse"><stop offset="0" stop-color="#d1deff"></stop><stop offset="1" stop-color="#b2c7ff"></stop></linearGradient><path fill="url(#t)" d="M316.103 195.884h-21.93c-.566 0-1.026-.46-1.026-1.025s.46-1.025 1.025-1.025h21.93c.566 0 1.026.46 1.026 1.025s-.46 1.025-1.025 1.025z"></path><linearGradient id="u" x1="311.339" x2="312.07" y1="164.015" y2="219.101" gradientUnits="userSpaceOnUse"><stop offset="0" stop-color="#d1deff"></stop><stop offset="1" stop-color="#b2c7ff"></stop></linearGradient><path fill="url(#u)" d="M321.066 204.262h-18.413c-.566 0-1.026-.459-1.026-1.024 0-.566.46-1.025 1.026-1.025h18.413c.566 0 1.026.46 1.026 1.025s-.46 1.024-1.026 1.024z"></path><linearGradient id="v" x1="291.613" x2="292.344" y1="164.277" y2="219.363" gradientUnits="userSpaceOnUse"><stop offset="0" stop-color="#d1deff"></stop><stop offset="1" stop-color="#b2c7ff"></stop></linearGradient><path fill="url(#v)" d="M297.369 204.262h-10.477c-.566 0-1.026-.459-1.026-1.024 0-.566.46-1.025 1.026-1.025h10.477c.565 0 1.025.46 1.025 1.025s-.46 1.024-1.025 1.024z"></path><linearGradient id="w" x1="383.253" x2="384.047" y1="159.078" y2="218.855" gradientUnits="userSpaceOnUse"><stop offset="0" stop-color="#d1deff"></stop><stop offset="1" stop-color="#b2c7ff"></stop></linearGradient><path fill="url(#w)" d="M442.352 212.642H325.55c-.566 0-1.026-.459-1.026-1.024s.46-1.025 1.026-1.025h116.802c.565 0 1.025.46 1.025 1.025s-.46 1.024-1.025 1.024z"></path><linearGradient id="x" x1="305.668" x2="306.399" y1="164.091" y2="219.177" gradientUnits="userSpaceOnUse"><stop offset="0" stop-color="#d1deff"></stop><stop offset="1" stop-color="#b2c7ff"></stop></linearGradient><path fill="url(#x)" d="M319.145 212.642h-25.693c-.566 0-1.026-.459-1.026-1.024s.46-1.025 1.026-1.025h25.693c.565 0 1.026.46 1.026 1.025s-.46 1.024-1.026 1.024z"></path><linearGradient id="y" x1="361.789" x2="362.52" y1="163.346" y2="218.432" gradientUnits="userSpaceOnUse"><stop offset="0" stop-color="#d1deff"></stop><stop offset="1" stop-color="#b2c7ff"></stop></linearGradient><path fill="url(#y)" d="M415.304 221.023H309.778c-.566 0-1.026-.46-1.026-1.025s.46-1.025 1.026-1.025h105.526c.566 0 1.026.46 1.026 1.025s-.46 1.025-1.026 1.025z"></path><linearGradient id="z" x1="297.472" x2="298.203" y1="164.199" y2="219.285" gradientUnits="userSpaceOnUse"><stop offset="0" stop-color="#d1deff"></stop><stop offset="1" stop-color="#b2c7ff"></stop></linearGradient><path fill="url(#z)" d="M302.973 221.023h-9.521c-.566 0-1.026-.46-1.026-1.025s.46-1.025 1.026-1.025h9.52c.566 0 1.027.46 1.027 1.025s-.46 1.025-1.026 1.025z"></path><linearGradient id="A" x1="363.232" x2="363.963" y1="163.327" y2="218.412" gradientUnits="userSpaceOnUse"><stop offset="0" stop-color="#d1deff"></stop><stop offset="1" stop-color="#b2c7ff"></stop></linearGradient><path fill="url(#A)" d="M406.427 230.279h-84.64c-.565 0-1.026-.46-1.026-1.025s.46-1.024 1.026-1.024h84.64c.565 0 1.025.46 1.025 1.024s-.46 1.025-1.025 1.025z"></path><linearGradient id="B" x1="304.273" x2="305.004" y1="164.109" y2="219.195" gradientUnits="userSpaceOnUse"><stop offset="0" stop-color="#d1deff"></stop><stop offset="1" stop-color="#b2c7ff"></stop></linearGradient><path fill="url(#B)" d="M316.103 230.279h-21.93c-.566 0-1.026-.46-1.026-1.025s.46-1.024 1.025-1.024h21.93c.566 0 1.026.46 1.026 1.024s-.46 1.025-1.025 1.025z"></path><linearGradient id="C" x1="423.878" x2="424.609" y1="164.109" y2="219.195" gradientUnits="userSpaceOnUse"><stop offset="0" stop-color="#d1deff"></stop><stop offset="1" stop-color="#b2c7ff"></stop></linearGradient><path fill="url(#C)" d="M435.707 230.279h-21.93c-.565 0-1.026-.46-1.026-1.025s.46-1.024 1.026-1.024h21.93c.566 0 1.026.46 1.026 1.024s-.46 1.025-1.026 1.025z"></path><linearGradient id="D" x1="310.882" x2="311.614" y1="164.021" y2="219.107" gradientUnits="userSpaceOnUse"><stop offset="0" stop-color="#d1deff"></stop><stop offset="1" stop-color="#b2c7ff"></stop></linearGradient><path fill="url(#D)" d="M321.066 238.658h-18.413c-.566 0-1.026-.46-1.026-1.025s.46-1.024 1.026-1.024h18.413c.566 0 1.026.459 1.026 1.024s-.46 1.025-1.026 1.025z"></path><linearGradient id="E" x1="291.157" x2="291.888" y1="164.283" y2="219.369" gradientUnits="userSpaceOnUse"><stop offset="0" stop-color="#d1deff"></stop><stop offset="1" stop-color="#b2c7ff"></stop></linearGradient><path fill="url(#E)" d="M297.369 238.658h-10.477c-.566 0-1.026-.46-1.026-1.025s.46-1.024 1.026-1.024h10.477c.565 0 1.025.459 1.025 1.024s-.46 1.025-1.025 1.025z"></path><linearGradient id="F" x1="425.359" x2="426.09" y1="162.502" y2="217.588" gradientUnits="userSpaceOnUse"><stop offset="0" stop-color="#d1deff"></stop><stop offset="1" stop-color="#b2c7ff"></stop></linearGradient><path fill="url(#F)" d="M454.236 238.658h-55.76c-.566 0-1.026-.46-1.026-1.025s.46-1.024 1.026-1.024h55.76c.566 0 1.026.459 1.026 1.024s-.46 1.025-1.026 1.025z"></path><linearGradient id="G" x1="358.36" x2="359.091" y1="163.391" y2="218.477" gradientUnits="userSpaceOnUse"><stop offset="0" stop-color="#d1deff"></stop><stop offset="1" stop-color="#b2c7ff"></stop></linearGradient><path fill="url(#G)" d="M392.071 238.658h-65.452c-.565 0-1.025-.46-1.025-1.025s.46-1.024 1.025-1.024h65.452c.565 0 1.026.459 1.026 1.024s-.46 1.025-1.026 1.025z"></path><linearGradient id="H" x1="421.8" x2="422.532" y1="162.549" y2="217.635" gradientUnits="userSpaceOnUse"><stop offset="0" stop-color="#d1deff"></stop><stop offset="1" stop-color="#b2c7ff"></stop></linearGradient><path fill="url(#H)" d="M455.224 204.262h-65.768c-.565 0-1.025-.459-1.025-1.024 0-.566.46-1.025 1.025-1.025h65.768c.566 0 1.026.46 1.026 1.025s-.46 1.024-1.026 1.024z"></path><linearGradient id="I" x1="357.483" x2="358.214" y1="163.403" y2="218.489" gradientUnits="userSpaceOnUse"><stop offset="0" stop-color="#d1deff"></stop><stop offset="1" stop-color="#b2c7ff"></stop></linearGradient><path fill="url(#I)" d="M382.651 204.262h-49.279c-.565 0-1.026-.459-1.026-1.024 0-.566.46-1.025 1.026-1.025h49.28c.565 0 1.025.46 1.025 1.025s-.46 1.024-1.026 1.024z"></path><linearGradient id="J" x1="363.273" x2="363.873" y1="253.956" y2="299.136" gradientUnits="userSpaceOnUse"><stop offset="0" stop-color="#d1deff"></stop><stop offset="1" stop-color="#b2c7ff"></stop></linearGradient><path fill="url(#J)" d="M367.612 257.994v37.156a3.997 3.997 0 0 1-3.998 3.99h-4.027v-45.135h4.027a3.997 3.997 0 0 1 3.998 3.99z"></path><linearGradient id="K" x1="325.221" x2="325.832" y1="253.535" y2="299.609" gradientUnits="userSpaceOnUse"><stop offset="0" stop-color="#ebf2ff"></stop><stop offset="1" stop-color="#e1e8ff"></stop></linearGradient><path fill="url(#K)" d="M365.19 257.994v37.156a3.997 3.997 0 0 1-3.998 3.99h-71.34a3.989 3.989 0 0 1-3.99-3.99v-37.156a3.989 3.989 0 0 1 3.99-3.99h71.34a3.997 3.997 0 0 1 3.998 3.99z"></path><linearGradient id="L" x1="292.255" x2="320.312" y1="276.572" y2="276.572" gradientUnits="userSpaceOnUse"><stop offset="0" stop-color="#f34b6d"></stop><stop offset="1" stop-color="#e24067"></stop></linearGradient><path fill="url(#L)" d="M320.312 264.224v24.696a1.68 1.68 0 0 1-1.68 1.68h-24.697a1.68 1.68 0 0 1-1.68-1.68v-24.696c0-.928.752-1.68 1.68-1.68h24.697c.928 0 1.68.752 1.68 1.68z"></path><path fill="#fff" d="m302.239 275.07-4.553 2.026 4.56 2.02c.473.213.626.799.253 1.172-.205.205-.494.25-.775.15l-.006-.007-5.42-2.43c-.358-.166-.586-.46-.586-.853v-.11c0-.389.228-.687.586-.853l5.42-2.43c.319-.117.586-.046.781.15.387.386.195.992-.26 1.166zM308.765 271.554l-3.595 10.525c-.18.54-.86.637-1.205.274-.183-.193-.255-.446-.15-.762l3.595-10.526a.712.712 0 0 1 .684-.488c.474 0 .854.43.671.977zM316.855 277.038v.11c0 .393-.228.684-.58.854l-5.426 2.43a.704.704 0 0 1-.99-.646c0-.3.212-.56.47-.67l4.552-2.02-4.553-2.025c-.468-.179-.64-.786-.26-1.166.213-.224.577-.244.781-.15l5.42 2.43c.358.166.586.464.586.853z"></path><linearGradient id="M" x1="326.585" x2="350.542" y1="267.905" y2="267.905" gradientUnits="userSpaceOnUse"><stop offset="0" stop-color="#d1deff"></stop><stop offset="1" stop-color="#b2c7ff"></stop></linearGradient><path fill="url(#M)" d="M326.585 264.125h23.957v7.56h-23.957z"></path><linearGradient id="N" x1="326.904" x2="359.864" y1="276.58" y2="276.58" gradientUnits="userSpaceOnUse"><stop offset="0" stop-color="#d1deff"></stop><stop offset="1" stop-color="#b2c7ff"></stop></linearGradient><path fill="url(#N)" d="M326.904 275.833h32.96v1.494h-32.96z"></path><linearGradient id="O" x1="326.904" x2="359.864" y1="280.601" y2="280.601" gradientUnits="userSpaceOnUse"><stop offset="0" stop-color="#d1deff"></stop><stop offset="1" stop-color="#b2c7ff"></stop></linearGradient><path fill="url(#O)" d="M326.904 279.854h32.96v1.494h-32.96z"></path><linearGradient id="P" x1="326.904" x2="359.864" y1="284.622" y2="284.622" gradientUnits="userSpaceOnUse"><stop offset="0" stop-color="#d1deff"></stop><stop offset="1" stop-color="#b2c7ff"></stop></linearGradient><path fill="url(#P)" d="M326.904 283.875h32.96v1.494h-32.96z"></path><linearGradient id="Q" x1="326.904" x2="359.864" y1="288.643" y2="288.643" gradientUnits="userSpaceOnUse"><stop offset="0" stop-color="#d1deff"></stop><stop offset="1" stop-color="#b2c7ff"></stop></linearGradient><path fill="url(#Q)" d="M326.904 287.896h9.454v1.494h-9.454z"></path><linearGradient id="R" x1="326.904" x2="359.864" y1="288.643" y2="288.643" gradientUnits="userSpaceOnUse"><stop offset="0" stop-color="#d1deff"></stop><stop offset="1" stop-color="#b2c7ff"></stop></linearGradient><path fill="url(#R)" d="M338.12 287.896h5.284v1.494h-5.284z"></path><linearGradient id="S" x1="326.904" x2="359.864" y1="288.643" y2="288.643" gradientUnits="userSpaceOnUse"><stop offset="0" stop-color="#d1deff"></stop><stop offset="1" stop-color="#b2c7ff"></stop></linearGradient><path fill="url(#S)" d="M345.051 287.896h4.091v1.494h-4.091z"></path><linearGradient id="T" x1="451.911" x2="452.511" y1="253.956" y2="299.136" gradientUnits="userSpaceOnUse"><stop offset="0" stop-color="#d1deff"></stop><stop offset="1" stop-color="#b2c7ff"></stop></linearGradient><path fill="url(#T)" d="M456.25 257.994v37.156a3.997 3.997 0 0 1-3.998 3.99h-4.028v-45.135h4.028a3.997 3.997 0 0 1 3.998 3.99z"></path><linearGradient id="U" x1="413.859" x2="414.47" y1="253.535" y2="299.609" gradientUnits="userSpaceOnUse"><stop offset="0" stop-color="#ebf2ff"></stop><stop offset="1" stop-color="#e1e8ff"></stop></linearGradient><path fill="url(#U)" d="M453.828 257.994v37.156a3.997 3.997 0 0 1-3.998 3.99h-71.34a3.989 3.989 0 0 1-3.99-3.99v-37.156a3.989 3.989 0 0 1 3.99-3.99h71.34a3.997 3.997 0 0 1 3.998 3.99z"></path><linearGradient id="V" x1="392.716" x2="397.123" y1="261.078" y2="292.056" gradientUnits="userSpaceOnUse"><stop offset="0" stop-color="#909eff"></stop><stop offset="1" stop-color="#6977e3"></stop></linearGradient><path fill="url(#V)" d="M408.949 264.227v24.69c0 .93-.75 1.679-1.678 1.679H382.57c-.93 0-1.678-.75-1.678-1.678v-24.691c0-.93.749-1.689 1.678-1.689h24.701c.929 0 1.678.76 1.678 1.689z"></path><linearGradient id="W" x1="415.222" x2="439.179" y1="267.905" y2="267.905" gradientUnits="userSpaceOnUse"><stop offset="0" stop-color="#d1deff"></stop><stop offset="1" stop-color="#b2c7ff"></stop></linearGradient><path fill="url(#W)" d="M415.222 264.125h23.957v7.56h-23.957z"></path><linearGradient id="X" x1="415.542" x2="448.502" y1="276.58" y2="276.58" gradientUnits="userSpaceOnUse"><stop offset="0" stop-color="#d1deff"></stop><stop offset="1" stop-color="#b2c7ff"></stop></linearGradient><path fill="url(#X)" d="M415.542 275.833h32.96v1.494h-32.96z"></path><linearGradient id="Y" x1="415.542" x2="448.502" y1="280.601" y2="280.601" gradientUnits="userSpaceOnUse"><stop offset="0" stop-color="#d1deff"></stop><stop offset="1" stop-color="#b2c7ff"></stop></linearGradient><path fill="url(#Y)" d="M415.542 279.854h32.96v1.494h-32.96z"></path><linearGradient id="Z" x1="415.542" x2="448.502" y1="284.622" y2="284.622" gradientUnits="userSpaceOnUse"><stop offset="0" stop-color="#d1deff"></stop><stop offset="1" stop-color="#b2c7ff"></stop></linearGradient><path fill="url(#Z)" d="M415.542 283.875h32.96v1.494h-32.96z"></path><linearGradient id="aa" x1="415.542" x2="448.502" y1="288.643" y2="288.643" gradientUnits="userSpaceOnUse"><stop offset="0" stop-color="#d1deff"></stop><stop offset="1" stop-color="#b2c7ff"></stop></linearGradient><path fill="url(#aa)" d="M415.542 287.896h9.454v1.494h-9.454z"></path><linearGradient id="ab" x1="415.542" x2="448.502" y1="288.643" y2="288.643" gradientUnits="userSpaceOnUse"><stop offset="0" stop-color="#d1deff"></stop><stop offset="1" stop-color="#b2c7ff"></stop></linearGradient><path fill="url(#ab)" d="M426.758 287.896h5.284v1.494h-5.284z"></path><linearGradient id="ac" x1="415.542" x2="448.502" y1="288.643" y2="288.643" gradientUnits="userSpaceOnUse"><stop offset="0" stop-color="#d1deff"></stop><stop offset="1" stop-color="#b2c7ff"></stop></linearGradient><path fill="url(#ac)" d="M433.689 287.896h4.091v1.494h-4.091z"></path><path fill="#fff" d="m403.57 277.913.009-2.616-1.885-.008a6.853 6.853 0 0 0-1.046-2.565l1.34-1.327-1.836-1.853-1.34 1.327a6.893 6.893 0 0 0-2.555-1.07l.009-1.884-2.611-.012-.01 1.892a6.786 6.786 0 0 0-2.56 1.05l-1.335-1.348-1.85 1.833 1.332 1.344a6.92 6.92 0 0 0-1.074 2.55l-1.888-.005-.008 2.608 1.88.012c.168.9.52 1.776 1.05 2.56l-1.34 1.328 1.837 1.854 1.34-1.328a6.81 6.81 0 0 0 2.554 1.078l-.008 1.877 2.61.02.01-1.893a6.826 6.826 0 0 0 2.56-1.05l1.335 1.348 1.85-1.833-1.336-1.347a6.881 6.881 0 0 0 1.074-2.55l1.893.008zm-6.321 1.008a3.312 3.312 0 0 1-4.661-4.704 3.317 3.317 0 0 1 4.687.013 3.318 3.318 0 0 1-.026 4.691z"></path><linearGradient id="ad" x1="169.405" x2="250.227" y1="171.901" y2="171.901" gradientUnits="userSpaceOnUse"><stop offset="0" stop-color="#909eff"></stop><stop offset=".853" stop-color="#6f7de7"></stop><stop offset="1" stop-color="#6977e3"></stop></linearGradient><path fill="url(#ad)" d="M244.133 116.487h-3.321v110.828h3.32a6.094 6.094 0 0 0 6.095-6.094v-98.64a6.094 6.094 0 0 0-6.094-6.094z"></path><linearGradient id="ae" x1="228.094" x2="177.247" y1="163.61" y2="183.07" gradientUnits="userSpaceOnUse"><stop offset="0" stop-color="#909eff"></stop><stop offset="1" stop-color="#6977e3"></stop></linearGradient><path fill="url(#ae)" d="M172.12 116.487h68.62a6.101 6.101 0 0 1 6.101 6.101v98.626a6.101 6.101 0 0 1-6.1 6.101h-68.62a6.101 6.101 0 0 1-6.102-6.101v-98.626a6.101 6.101 0 0 1 6.102-6.101z"></path><path fill="#fff" d="M172.793 129.042h55.775v3.098h-55.775zM172.793 136.252h16.839v3.098h-16.839zM180.489 165.093h13.902v3.098h-13.902zM199.524 165.093h21.496v3.098h-21.496zM196.903 136.252h25.665v3.098h-25.665zM172.793 143.463h27.533v3.098h-27.533zM208.042 143.463h16.887v3.098h-16.887zM185.914 150.672h17.76v3.099h-17.76zM210.516 150.672h8.007v3.099h-8.007zM223.764 150.672h16.304v3.099h-16.304zM174.108 179.16h8.443v3.099h-8.443zM187.792 179.16h12.839v3.099h-12.839zM187.37 157.883h11.064v3.099H187.37zM205.13 157.883h19.507v3.099H205.13zM180.489 214.482h13.902v3.098h-13.902zM199.524 214.482h21.496v3.098h-21.496zM185.914 200.061h17.76v3.099h-17.76zM210.516 200.061h8.007v3.099h-8.007zM223.764 200.061h16.304v3.099h-16.304zM187.37 207.272h11.064v3.099H187.37zM205.13 207.272h19.507v3.099H205.13zM216.707 179.442c-.345-.344-.814-.476-1.383-.26l-8.134 3.65c-.583.274-.979.787-.979 1.445v.163c0 .66.397 1.172.986 1.449l8.127 3.645.024.01c.461.174.991.098 1.36-.27.638-.64.388-1.7-.445-2.047l-6.454-2.869 6.445-2.864c.847-.352 1.091-1.41.453-2.052zM223.771 175.258l-5.399 15.79c-.174.526-.05.99.27 1.325.607.633 1.79.47 2.109-.483l5.399-15.789c.173-.525.052-.989-.27-1.327-.602-.625-1.792-.47-2.109.484zM237.304 182.827l-8.133-3.648c-.432-.185-1.019-.095-1.377.264-.64.64-.383 1.703.444 2.046l6.455 2.869-6.446 2.865c-.873.366-1.072 1.434-.452 2.051.389.39.967.44 1.383.26l8.134-3.649c.583-.273.978-.788.978-1.445v-.163c0-.66-.392-1.169-.986-1.45z"></path><linearGradient id="af" x1="474.229" x2="555.051" y1="285.159" y2="285.159" gradientUnits="userSpaceOnUse"><stop offset="0" stop-color="#909eff"></stop><stop offset=".853" stop-color="#6f7de7"></stop><stop offset="1" stop-color="#6977e3"></stop></linearGradient><path fill="url(#af)" d="M548.957 229.745h-3.321v110.828h3.32a6.094 6.094 0 0 0 6.095-6.094v-98.64a6.094 6.094 0 0 0-6.094-6.094z"></path><linearGradient id="ag" x1="532.918" x2="482.071" y1="276.868" y2="296.328" gradientUnits="userSpaceOnUse"><stop offset="0" stop-color="#909eff"></stop><stop offset="1" stop-color="#6977e3"></stop></linearGradient><path fill="url(#ag)" d="M476.945 229.745h68.62a6.101 6.101 0 0 1 6.1 6.101v98.626a6.101 6.101 0 0 1-6.1 6.101h-68.62a6.101 6.101 0 0 1-6.102-6.101v-98.626a6.101 6.101 0 0 1 6.102-6.101z"></path><path fill="#fff" d="M529.484 246.874h-24.26a1.103 1.103 0 0 1 0-2.204h24.26a1.103 1.103 0 0 1 0 2.204zm-24.26-1.204a.1.1 0 0 0-.102.102.1.1 0 0 0 .101.102h24.26a.1.1 0 0 0 .102-.102.1.1 0 0 0-.101-.102h-24.26z"></path><path fill="#fff" d="M505.223 246.874h-16.061a1.103 1.103 0 0 1 0-2.204h16.061a1.103 1.103 0 0 1 0 2.204zm-16.061-1.204a.102.102 0 0 0-.103.102c0 .056.046.102.103.102h16.061a.102.102 0 0 0 .103-.102.102.102 0 0 0-.103-.102h-16.061zM529.484 252.035h-24.26a1.103 1.103 0 0 1 0-2.204h24.26a1.103 1.103 0 0 1 0 2.204zm-24.26-1.204a.1.1 0 0 0-.102.102.1.1 0 0 0 .101.102h24.26a.1.1 0 0 0 .102-.102.1.1 0 0 0-.101-.102h-24.26z"></path><path fill="#fff" d="M505.223 252.035h-10.02a1.103 1.103 0 0 1 0-2.204h10.02a1.103 1.103 0 0 1 0 2.204zm-10.02-1.204a.102.102 0 0 0-.102.102c0 .056.046.102.103.102h10.02a.102.102 0 0 0 .102-.102.102.102 0 0 0-.103-.102h-10.02zM528.87 257.196h-23.374a1.103 1.103 0 0 1 0-2.204h23.375a1.103 1.103 0 0 1 0 2.204zm-23.374-1.204a.102.102 0 0 0 0 .204h23.375a.102.102 0 0 0 0-.204h-23.375z"></path><path fill="#fff" d="M505.496 257.196h-16.334a1.103 1.103 0 0 1 0-2.204h16.334a1.103 1.103 0 0 1 0 2.204zm-16.334-1.204a.102.102 0 0 0-.103.102c0 .056.046.102.103.102h16.334a.102.102 0 0 0 .102-.102.102.102 0 0 0-.102-.102h-16.334zM528.87 262.357h-32.85a1.103 1.103 0 0 1 0-2.204h32.85a1.103 1.103 0 0 1 0 2.204zm-32.85-1.204a.1.1 0 0 0-.1.102.1.1 0 0 0 .1.102h32.85a.102.102 0 0 0 0-.204h-32.85zM528.87 267.518h-23.988a1.103 1.103 0 0 1 0-2.204h23.989a1.103 1.103 0 0 1 0 2.204zm-23.988-1.204a.1.1 0 0 0-.101.102.1.1 0 0 0 .101.102h23.989a.102.102 0 0 0 0-.204h-23.989z"></path><path fill="#fff" d="M504.882 267.518h-10.497a1.103 1.103 0 0 1 0-2.204h10.497a1.103 1.103 0 0 1 0 2.204zm-10.497-1.204a.1.1 0 0 0-.101.102.1.1 0 0 0 .101.102h10.497a.102.102 0 0 0 .103-.102.102.102 0 0 0-.103-.102h-10.497zM535.885 272.678h-31.003a1.103 1.103 0 0 1 0-2.204h31.003a1.103 1.103 0 0 1 0 2.204zm-31.003-1.204a.1.1 0 0 0-.101.102.1.1 0 0 0 .101.102h31.003a.1.1 0 0 0 .102-.102.1.1 0 0 0-.102-.102h-31.003zM497.93 272.678h-8.768a1.103 1.103 0 0 1 0-2.204h8.768a1.103 1.103 0 0 1 0 2.204zm-8.768-1.204a.102.102 0 0 0-.103.102c0 .056.046.102.103.102h8.768a.102.102 0 0 0 0-.204h-8.768zM528.87 277.84h-24.329a1.103 1.103 0 0 1 0-2.205h24.33a1.103 1.103 0 0 1 0 2.204zm-24.329-1.205a.1.1 0 0 0-.101.102.1.1 0 0 0 .101.102h24.33a.102.102 0 0 0 0-.204h-24.33z"></path><path fill="#fff" d="M504.541 277.84h-15.38a1.103 1.103 0 0 1 0-2.204h15.38a1.103 1.103 0 0 1 0 2.203zm-15.38-1.205a.102.102 0 0 0-.102.102c0 .056.046.102.103.102h15.38a.102.102 0 0 0 .102-.102.102.102 0 0 0-.103-.102h-15.38zM535.885 283h-24.598a1.103 1.103 0 0 1 0-2.204h24.598a1.103 1.103 0 0 1 0 2.204zm-24.598-1.204a.102.102 0 0 0 0 .204h24.598a.1.1 0 0 0 .102-.102.1.1 0 0 0-.102-.102h-24.598zM500.043 283h-10.881a1.103 1.103 0 0 1 0-2.204h10.881a1.103 1.103 0 0 1 0 2.204zm-10.881-1.204a.102.102 0 0 0-.103.102c0 .056.046.102.103.102h10.881a.102.102 0 0 0 0-.204h-10.881zM535.885 288.16h-24.322a1.103 1.103 0 0 1 0-2.203h24.322a1.103 1.103 0 0 1 0 2.204zm-24.322-1.203a.102.102 0 0 0-.103.102c0 .056.046.102.103.102h24.322a.1.1 0 0 0 .102-.102.1.1 0 0 0-.102-.102h-24.322zM500.043 288.16h-10.881a1.103 1.103 0 0 1 0-2.203h10.881a1.103 1.103 0 0 1 0 2.204zm-10.881-1.203a.102.102 0 0 0-.103.102c0 .056.046.102.103.102h10.881a.102.102 0 0 0 0-.204h-10.881zM535.885 293.321h-31.344a1.103 1.103 0 0 1 0-2.204h31.344a1.103 1.103 0 0 1 0 2.204zm-31.344-1.204c-.056 0-.101.045-.101.102s.045.102.101.102h31.344c.057 0 .102-.045.102-.102s-.045-.102-.102-.102h-31.344zM499.02 293.321h-9.858a1.103 1.103 0 0 1 0-2.204h9.858a1.103 1.103 0 0 1 0 2.204zm-9.858-1.204c-.057 0-.103.046-.103.102s.046.102.103.102h9.858c.057 0 .102-.046.102-.102s-.045-.102-.102-.102h-9.858zM535.885 308.878h-24.598a1.103 1.103 0 0 1 0-2.203h24.598a1.103 1.103 0 0 1 0 2.203zm-24.598-1.203a.102.102 0 0 0 0 .203h24.598c.057 0 .102-.045.102-.102s-.045-.101-.102-.101h-24.598zM500.043 308.878h-10.881a1.103 1.103 0 0 1-1.103-1.102c0-.607.494-1.101 1.103-1.101h10.881a1.103 1.103 0 0 1 0 2.203zm-10.881-1.203c-.057 0-.103.045-.103.101s.046.102.103.102h10.881c.056 0 .102-.045.102-.102s-.046-.101-.102-.101h-10.881zM535.885 314.04h-24.322a1.103 1.103 0 0 1-1.103-1.103c0-.607.495-1.102 1.103-1.102h24.322a1.103 1.103 0 0 1 0 2.204zm-24.322-1.205c-.057 0-.103.046-.103.103s.046.101.103.101h24.322c.057 0 .102-.044.102-.102s-.045-.102-.102-.102h-24.322zM500.043 314.04h-10.881a1.103 1.103 0 0 1-1.103-1.103c0-.607.494-1.102 1.103-1.102h10.881a1.103 1.103 0 0 1 0 2.204zm-10.881-1.205c-.057 0-.103.046-.103.103s.046.101.103.101h10.881a.102.102 0 0 0 0-.204h-10.881zM535.885 319.2h-31.344a1.103 1.103 0 0 1 0-2.204h31.344a1.103 1.103 0 0 1 0 2.204zm-31.344-1.204c-.056 0-.101.045-.101.102s.045.102.101.102h31.344c.057 0 .102-.045.102-.102s-.045-.102-.102-.102h-31.344zM499.02 319.2h-9.858a1.103 1.103 0 0 1-1.103-1.102c0-.608.494-1.102 1.103-1.102h9.858a1.103 1.103 0 0 1 0 2.204zm-9.858-1.204c-.057 0-.103.046-.103.102s.046.102.103.102h9.858c.057 0 .102-.046.102-.102s-.045-.102-.102-.102h-9.858zM529.96 298.482h-25.078a1.103 1.103 0 0 1 0-2.204h25.078a1.103 1.103 0 0 1 0 2.204zm-25.078-1.204c-.056 0-.101.045-.101.102s.045.102.101.102h25.078c.057 0 .103-.046.103-.102s-.046-.102-.103-.102h-25.078z"></path><path fill="#fff" d="M504.882 298.482h-15.72a1.103 1.103 0 0 1-1.103-1.102c0-.607.494-1.102 1.103-1.102h15.72a1.103 1.103 0 0 1 0 2.204zm-15.72-1.204c-.057 0-.103.046-.103.102s.046.102.103.102h15.72c.057 0 .103-.046.103-.102s-.046-.102-.103-.102h-15.72zM528.87 303.643h-30.19a1.103 1.103 0 0 1 0-2.204h30.19a1.103 1.103 0 0 1 0 2.204zm-30.19-1.204a.102.102 0 0 0 0 .204h30.19a.102.102 0 0 0 0-.204h-30.19zM538.085 328.687h-.43c-.946 0-1.752-.8-1.752-1.753 0-.949.802-1.753 1.753-1.753h.537c.968 0 1.611-.056 1.611-1.003V278.38c0-1.89.843-3.307 2.508-4.223-1.665-.917-2.508-2.334-2.508-4.224V246.14c0-.953-.66-1.003-1.611-1.003h-.537c-.942 0-1.753-.794-1.753-1.753 0-.951.804-1.753 1.753-1.753h.43c3.496 0 5.51 1.284 5.51 4.795v23.4c0 1.14.127 1.948 2.875 2.406 1.081.19 1.635.942 1.635 1.925 0 .981-.553 1.734-1.63 1.924-1.808.301-2.88.706-2.88 2.407v45.403c0 2.974-1.395 4.796-5.51 4.796zm-.43-2.506a.78.78 0 0 0-.752.753c0 .398.36.753.753.753h.43c3.515 0 4.51-1.335 4.51-3.796v-45.403c0-2.246 1.342-2.998 3.711-3.393.516-.091.799-.368.799-.938 0-.571-.282-.848-.804-.94-3.153-.525-3.706-1.672-3.706-3.391v-23.4c0-2.457-.993-3.795-4.51-3.795h-.43a.78.78 0 0 0-.753.753.78.78 0 0 0 .753.753h.537c1.483 0 2.611.378 2.611 2.003v23.793c0 1.812.946 3.04 2.894 3.754l1.28.47-1.28.47c-1.948.713-2.894 1.941-2.894 3.753v45.798c0 1.635-1.144 2.003-2.611 2.003h-.537zM484.853 328.687h-.43c-3.544 0-5.51-1.321-5.51-4.796v-45.403c0-1.153-.135-1.95-2.875-2.407-1.086-.19-1.635-.946-1.635-1.924s.548-1.734 1.63-1.924c1.872-.312 2.88-.743 2.88-2.407v-23.4c0-2.973 1.392-4.795 5.51-4.795h.43c.936 0 1.753.791 1.753 1.753 0 .966-.82 1.753-1.753 1.753h-.536c-.965 0-1.612.054-1.612 1.003v23.793c0 1.89-.843 3.307-2.508 4.224 1.665.916 2.508 2.333 2.508 4.223v45.798c0 .951.653 1.003 1.612 1.003h.536c.932 0 1.753.787 1.753 1.753 0 .962-.816 1.753-1.753 1.753zm-.43-1h.43c.4 0 .753-.361.753-.753a.78.78 0 0 0-.753-.753h-.536c-1.487 0-2.612-.38-2.612-2.003V278.38c0-1.812-.947-3.04-2.894-3.754l-1.28-.47 1.28-.469c1.947-.714 2.894-1.942 2.894-3.754V246.14c0-1.637 1.146-2.003 2.612-2.003h.536c.4 0 .753-.36.753-.753a.78.78 0 0 0-.753-.753h-.43c-3.515 0-4.51 1.335-4.51 3.795v23.4c0 2.24-1.335 2.997-3.711 3.392-.525.093-.8.375-.8.939 0 .565.276.846.804.939 3.17.529 3.707 1.685 3.707 3.392v45.403c0 2.938 1.562 3.796 4.51 3.796z"></path><linearGradient id="ah" x1="505.483" x2="509.062" y1="162.364" y2="162.364" gradientUnits="userSpaceOnUse"><stop offset="0" stop-color="#f34b6d"></stop><stop offset="1" stop-color="#e24067"></stop></linearGradient><path fill="url(#ah)" d="M507.21 145.095h-4.682v34.538h4.681c1.604 0 2.905-1.3 2.905-2.905v-28.722a2.91 2.91 0 0 0-2.905-2.91z"></path><linearGradient id="ai" x1="483.469" x2="464.502" y1="155.015" y2="176.845" gradientUnits="userSpaceOnUse"><stop offset="0" stop-color="#f34b6d"></stop><stop offset="1" stop-color="#e24067"></stop></linearGradient><path fill="url(#ai)" d="M507.9 148.006v28.722c0 1.605-1.3 2.905-2.904 2.905h-55.824c-1.61 0-2.91-1.3-2.91-2.905v-28.722c0-1.604 1.3-2.91 2.91-2.91h55.824a2.91 2.91 0 0 1 2.904 2.91z"></path><path fill="#fff" d="M456.081 166.287v-9.96c0-.401.305-.743.727-.743a.74.74 0 0 1 .743.742v4.294h6.118v-4.294c0-.406.31-.742.727-.742.41 0 .742.329.742.742v9.96a.727.727 0 0 1-.742.727.713.713 0 0 1-.727-.726v-4.295h-6.118v4.295a.727.727 0 0 1-.743.726.714.714 0 0 1-.727-.726zM470.885 166.287v-9.25h-3.293a.66.66 0 0 1-.678-.678c0-.383.282-.695.678-.695h8.04c.386 0 .694.301.694.695 0 .398-.314.677-.694.677h-3.277v9.25a.727.727 0 0 1-.743.727.714.714 0 0 1-.727-.726zM478.101 166.287v-9.638c0-.576.457-1.065 1.05-1.065h.532c.448 0 .82.305.985.677l3.664 9.138 3.665-9.138c.166-.373.538-.677.985-.677h.533c.592 0 1.049.488 1.049 1.065v9.638a.714.714 0 0 1-.727.726.727.727 0 0 1-.742-.726v-9.17l-3.73 9.218c-.169.403-.57.678-1.033.678-.445 0-.858-.262-1.033-.678l-3.728-9.218v9.17a.727.727 0 0 1-.743.726.714.714 0 0 1-.727-.726zM493.696 165.915v-9.589c0-.4.304-.742.726-.742a.74.74 0 0 1 .743.742v9.137h5.279c.412 0 .743.332.743.743a.728.728 0 0 1-.743.726h-5.73a1.016 1.016 0 0 1-1.018-1.017z"></path><linearGradient id="aj" x1="243.311" x2="245.027" y1="265.814" y2="265.814" gradientUnits="userSpaceOnUse"><stop offset="0" stop-color="#fadf68"></stop><stop offset="1" stop-color="#eac250"></stop></linearGradient><path fill="url(#aj)" d="M244.106 249.737h-4.358v32.153h4.358a2.705 2.705 0 0 0 2.704-2.704v-26.739a2.71 2.71 0 0 0-2.704-2.71z"></path><linearGradient id="ak" x1="246.298" x2="185.822" y1="258.82" y2="272.808" gradientUnits="userSpaceOnUse"><stop offset="0" stop-color="#fadf68"></stop><stop offset="1" stop-color="#eac250"></stop></linearGradient><path fill="url(#ak)" d="M244.751 252.443v26.742a2.708 2.708 0 0 1-2.705 2.706h-51.97a2.703 2.703 0 0 1-2.706-2.706v-26.742a2.709 2.709 0 0 1 2.706-2.706h51.97a2.714 2.714 0 0 1 2.705 2.706z"></path><path fill="#fff" d="M205.93 273.213c-.335-.197-.502-.479-.502-.842 0-.694.666-1.147 1.275-.843.699.334 1.404.5 2.118.5 2.194 0 2.754-1.428 2.754-3.368v-9.858c0-.566.43-1.047 1.025-1.047.576 0 1.047.462 1.047 1.047v9.721c0 3.295-1.395 5.464-4.69 5.464-1.108 0-2.117-.258-3.027-.774zM217.54 272.894c-.63-.26-.865-1.072-.375-1.605.293-.32.75-.35 1.104-.193 1.396.622 2.89.933 4.484.933 2.656 0 3.984-.873 3.984-2.618 0-1.591-2.266-2.049-3.916-2.481-2.95-.766-5.759-1.532-5.759-4.622 0-2.435 1.907-4.667 5.896-4.667 1.67 0 3.18.25 4.53.751.425.152.637.456.637.91 0 .598-.534 1.163-1.274.866a11.125 11.125 0 0 0-3.665-.614c-1.916 0-4.052.671-4.052 2.595 0 1.853 2.223 2.306 4.074 2.732 3.028.728 5.578 1.502 5.578 4.667 0 2.314-2.008 4.439-5.828 4.439-1.928 0-3.733-.364-5.418-1.093z"></path><linearGradient id="al" x1="350.642" x2="352.154" y1="92.81" y2="92.81" gradientUnits="userSpaceOnUse"><stop offset="0" stop-color="#3dcfa4"></stop><stop offset="1" stop-color="#30bb93"></stop></linearGradient><path fill="url(#al)" d="M351.342 78.643h-3.84v28.333h3.84a2.383 2.383 0 0 0 2.383-2.383V81.031a2.387 2.387 0 0 0-2.383-2.388z"></path><linearGradient id="am" x1="353.274" x2="299.984" y1="86.647" y2="98.973" gradientUnits="userSpaceOnUse"><stop offset="0" stop-color="#3dcfa4"></stop><stop offset="1" stop-color="#30bb93"></stop></linearGradient><path fill="url(#am)" d="M351.911 81.027v23.566a2.387 2.387 0 0 1-2.384 2.384h-45.795a2.382 2.382 0 0 1-2.385-2.384V81.027a2.387 2.387 0 0 1 2.385-2.384h45.795a2.392 2.392 0 0 1 2.384 2.384z"></path><path fill="#fff" d="M309.801 92.81c0-4.038 2.701-6.606 6.44-6.606 1.424 0 2.668.275 4.196 1.14a.756.756 0 0 1 .203 1.188c-.23.24-.617.262-.865.138-1.27-.664-2.214-.865-3.367-.865-3.115 0-4.931 2.023-4.931 5.005 0 2.92 1.766 5.005 4.931 5.005 1.158 0 2.1-.202 3.367-.865.244-.122.631-.104.865.13a.765.765 0 0 1-.203 1.195c-1.519.86-2.762 1.141-4.195 1.141-3.787 0-6.44-2.613-6.44-6.606zM323.031 98.533c-.511-.214-.696-.87-.303-1.298.237-.258.606-.283.892-.156a8.806 8.806 0 0 0 3.625.754c2.147 0 3.22-.705 3.22-2.115 0-1.288-1.818-1.653-3.165-2.006-2.37-.615-4.655-1.246-4.655-3.736 0-2 1.593-3.772 4.766-3.772 1.35 0 2.57.203 3.662.607.6.216.641.881.313 1.27-.186.219-.47.31-.828.166a8.995 8.995 0 0 0-2.963-.497c-1.553 0-3.275.545-3.275 2.097 0 1.482 1.793 1.865 3.293 2.209 2.434.586 4.509 1.193 4.509 3.772 0 2.357-2.264 3.588-4.711 3.588-1.558 0-3.017-.294-4.38-.883zM334.367 98.533c-.512-.214-.696-.87-.303-1.298.237-.258.606-.283.892-.156a8.806 8.806 0 0 0 3.625.754c2.147 0 3.22-.705 3.22-2.115 0-1.288-1.818-1.653-3.165-2.006-2.37-.615-4.655-1.246-4.655-3.736 0-2 1.593-3.772 4.766-3.772 1.35 0 2.57.203 3.662.607.6.216.641.881.312 1.27-.186.219-.469.31-.827.166a8.996 8.996 0 0 0-2.963-.497c-1.553 0-3.275.545-3.275 2.097 0 1.482 1.793 1.865 3.293 2.209 2.434.586 4.508 1.193 4.508 3.772 0 2.357-2.263 3.588-4.71 3.588-1.558 0-3.018-.294-4.38-.883z"></path></svg>