<svg xmlns="http://www.w3.org/2000/svg" xmlns:xlink="http://www.w3.org/1999/xlink" preserveAspectRatio="xMidYMid meet" width="1080" height="1080" viewBox="0 0 1080 1080" style="width:100%;height:100%"><defs><animateTransform repeatCount="indefinite" dur="10s" begin="0s" xlink:href="#_R_G_L_11_G" fill="freeze" attributeName="transform" from="0" to="360" type="rotate" additive="sum" keyTimes="0;0.996;1" values="0;360;360" keySplines="0.167 0.167 0.833 0.833;0 0 0 0" calcMode="spline"/><animateTransform repeatCount="indefinite" dur="10s" begin="0s" xlink:href="#_R_G_L_11_G" fill="freeze" attributeName="transform" from="-124.312 -124.312" to="-124.312 -124.312" type="translate" additive="sum" keyTimes="0;1" values="-124.312 -124.312;-124.312 -124.312" keySplines="0 0 1 1" calcMode="spline"/><animateTransform repeatCount="indefinite" dur="10s" begin="0s" xlink:href="#_R_G_L_10_G" fill="freeze" attributeName="transform" from="0" to="360" type="rotate" additive="sum" keyTimes="0;0.996;1" values="0;360;360" keySplines="0.167 0.167 0.833 0.833;0 0 0 0" calcMode="spline"/><animateTransform repeatCount="indefinite" dur="10s" begin="0s" xlink:href="#_R_G_L_10_G" fill="freeze" attributeName="transform" from="-224.311 -224.311" to="-224.311 -224.311" type="translate" additive="sum" keyTimes="0;1" values="-224.311 -224.311;-224.311 -224.311" keySplines="0 0 1 1" calcMode="spline"/><animateTransform repeatCount="indefinite" dur="10s" begin="0s" xlink:href="#_R_G_L_9_G" fill="freeze" attributeName="transform" from="-3.138" to="-3.138" type="rotate" additive="sum" keyTimes="0;0.1;0.244;0.344;0.5;0.6;0.744;0.844;1" values="-3.138;7.483;7.483;-3.138;-3.138;7.483;7.483;-3.138;-3.138" keySplines="0.333 0 0.667 1;0.333 0 0.667 1;0.333 0 0.667 1;0.333 0 0.667 1;0.333 0 0.667 1;0.333 0 0.667 1;0.333 0 0.667 1;0 0 0 0" calcMode="spline"/><animateTransform repeatCount="indefinite" dur="10s" begin="0s" xlink:href="#_R_G_L_9_G" fill="freeze" attributeName="transform" from="-132.31 -205.465" to="-132.31 -205.465" type="translate" additive="sum" keyTimes="0;1" values="-132.31 -205.465;-132.31 -205.465" keySplines="0 0 1 1" calcMode="spline"/><animateTransform repeatCount="indefinite" dur="10s" begin="0s" xlink:href="#_R_G_L_8_G" fill="freeze" attributeName="transform" from="-4.423" to="-4.423" type="rotate" additive="sum" keyTimes="0;0.1;0.244;0.344;0.5;0.6;0.744;0.844;1" values="-4.423;0;0;-4.423;-4.423;0;0;-4.423;-4.423" keySplines="0.333 0 0.667 1;0.333 0 0.667 1;0.333 0 0.667 1;0.333 0 0.667 1;0.333 0 0.667 1;0.333 0 0.667 1;0.333 0 0.667 1;0 0 0 0" calcMode="spline"/><animateTransform repeatCount="indefinite" dur="10s" begin="0s" xlink:href="#_R_G_L_8_G" fill="freeze" attributeName="transform" from="-102.252 -295.663" to="-102.252 -295.663" type="translate" additive="sum" keyTimes="0;1" values="-102.252 -295.663;-102.252 -295.663" keySplines="0 0 1 1" calcMode="spline"/><animateMotion repeatCount="indefinite" dur="10s" begin="0s" xlink:href="#_R_G_L_6_G" fill="freeze" keyTimes="0;0.62;0.712;0.9;0.992;1" path="M907.22 709.97 C907.22,709.97 907.22,709.97 907.22,709.97 C900.55,709.97 873.89,709.97 867.22,709.97 C867.22,709.97 867.22,709.97 867.22,709.97 C873.89,709.97 900.55,709.97 907.22,709.97 C907.22,709.97 907.22,709.97 907.22,709.97 " keyPoints="0;0;0.5;0.5;1;1" keySplines="0.333 0 0.667 1;0.333 0 0.667 1;0.333 0.333 0.667 0.667;0.333 0 0.667 1;0 0 0 0" calcMode="spline"/><animateTransform repeatCount="indefinite" dur="10s" begin="0s" xlink:href="#_R_G_L_6_G" fill="freeze" attributeName="transform" from="-90.814 -172.698" to="-90.814 -172.698" type="translate" additive="sum" keyTimes="0;1" values="-90.814 -172.698;-90.814 -172.698" keySplines="0 0 1 1" calcMode="spline"/><animateMotion repeatCount="indefinite" dur="10s" begin="0s" xlink:href="#_R_G_L_5_G" fill="freeze" keyTimes="0;0.62;0.712;0.9;0.992;1" path="M470.95 716.92 C470.95,716.92 470.95,716.92 470.95,716.92 C491.28,716.92 572.62,716.92 592.95,716.92 C592.95,716.92 592.95,716.92 592.95,716.92 C572.62,716.92 491.28,716.92 470.95,716.92 C470.95,716.92 470.95,716.92 470.95,716.92 " keyPoints="0;0;0.5;0.5;1;1" keySplines="0.333 0 0.667 1;0.333 0 0.667 1;0.333 0.333 0.667 0.667;0.333 0 0.667 1;0 0 0 0" calcMode="spline"/><animateTransform repeatCount="indefinite" dur="10s" begin="0s" xlink:href="#_R_G_L_5_G" fill="freeze" attributeName="transform" from="-103.338 -163.975" to="-103.338 -163.975" type="translate" additive="sum" keyTimes="0;1" values="-103.338 -163.975;-103.338 -163.975" keySplines="0 0 1 1" calcMode="spline"/><animateMotion repeatCount="indefinite" dur="10s" begin="0s" xlink:href="#_R_G_L_4_G" fill="freeze" keyTimes="0;0.1;0.2;0.3;0.408;1" path="M313.9 413.07 C313.9,413.07 313.9,413.07 313.9,413.07 C320.57,413.07 347.24,413.07 353.9,413.07 C353.9,413.07 353.9,413.07 353.9,413.07 C347.24,413.07 320.57,413.07 313.9,413.07 C313.9,413.07 313.9,413.07 313.9,413.07 " keyPoints="0;0;0.5;0.5;1;1" keySplines="0.333 0 0.667 1;0.333 0 0.667 1;0.333 0.333 0.667 0.667;0.333 0 0.667 1;0 0 0 0" calcMode="spline"/><animateTransform repeatCount="indefinite" dur="10s" begin="0s" xlink:href="#_R_G_L_4_G" fill="freeze" attributeName="transform" from="-95.111 -141.672" to="-95.111 -141.672" type="translate" additive="sum" keyTimes="0;1" values="-95.111 -141.672;-95.111 -141.672" keySplines="0 0 1 1" calcMode="spline"/><animateTransform repeatCount="indefinite" dur="10s" begin="0s" xlink:href="#_R_G_L_3_G" fill="freeze" attributeName="transform" from="1 1" to="1 1" type="scale" additive="sum" keyTimes="0;0.304;0.408;0.508;1" values="1 1;1 1;0.7000000000000001 0.7000000000000001;1 1;1 1" keySplines="0.333 0 0.667 1;0.333 0 0.667 1;0.333 0 0.667 1;0 0 0 0" calcMode="spline"/><animateTransform repeatCount="indefinite" dur="10s" begin="0s" xlink:href="#_R_G_L_3_G" fill="freeze" attributeName="transform" from="-87.652 -69.396" to="-87.652 -69.396" type="translate" additive="sum" keyTimes="0;1" values="-87.652 -69.396;-87.652 -69.396" keySplines="0 0 1 1" calcMode="spline"/><animateTransform repeatCount="indefinite" dur="10s" begin="0s" xlink:href="#_R_G_L_2_G" fill="freeze" attributeName="transform" from="1 1" to="1 1" type="scale" additive="sum" keyTimes="0;0.208;0.304;0.408;1" values="1 1;1 1;0.7000000000000001 0.7000000000000001;1 1;1 1" keySplines="0.333 0 0.667 1;0.333 0 0.667 1;0.333 0 0.667 1;0 0 0 0" calcMode="spline"/><animateTransform repeatCount="indefinite" dur="10s" begin="0s" xlink:href="#_R_G_L_2_G" fill="freeze" attributeName="transform" from="-85.83 -45.562" to="-85.83 -45.562" type="translate" additive="sum" keyTimes="0;1" values="-85.83 -45.562;-85.83 -45.562" keySplines="0 0 1 1" calcMode="spline"/><animateMotion repeatCount="indefinite" dur="10s" begin="0s" xlink:href="#_R_G_L_1_G" fill="freeze" keyTimes="0;0.62;0.708;0.9;0.992;1" path="M767.77 529.01 C767.77,529.01 767.77,529.01 767.77,529.01 C761.11,529.01 734.44,529.01 727.77,529.01 C727.77,529.01 727.77,529.01 727.77,529.01 C734.44,529.01 761.11,529.01 767.77,529.01 C767.77,529.01 767.77,529.01 767.77,529.01 " keyPoints="0;0;0.5;0.5;1;1" keySplines="0.333 0 0.667 1;0.333 0 0.667 1;0.333 0.333 0.667 0.667;0.333 0 0.667 1;0 0 0 0" calcMode="spline"/><animateTransform repeatCount="indefinite" dur="10s" begin="0s" xlink:href="#_R_G_L_1_G" fill="freeze" attributeName="transform" from="1 1" to="1 1" type="scale" additive="sum" keyTimes="0;0.104;0.204;0.304;1" values="1 1;1 1;0.7000000000000001 0.7000000000000001;1 1;1 1" keySplines="0.167 0.167 0.833 0.833;0.167 0.167 0.833 0.833;0.167 0.167 0.833 0.833;0 0 0 0" calcMode="spline"/><animateTransform repeatCount="indefinite" dur="10s" begin="0s" xlink:href="#_R_G_L_1_G" fill="freeze" attributeName="transform" from="-93.536 -49.642" to="-93.536 -49.642" type="translate" additive="sum" keyTimes="0;1" values="-93.536 -49.642;-93.536 -49.642" keySplines="0 0 1 1" calcMode="spline"/><animateTransform repeatCount="indefinite" dur="10s" begin="0s" xlink:href="#_R_G_L_0_G" fill="freeze" attributeName="transform" from="1 1" to="1 1" type="scale" additive="sum" keyTimes="0;0.1;0.2;1" values="1 1;0.7000000000000001 0.7000000000000001;1 1;1 1" keySplines="0.333 0 0.667 1;0.333 0 0.667 1;0 0 0 0" calcMode="spline"/><animateTransform repeatCount="indefinite" dur="10s" begin="0s" xlink:href="#_R_G_L_0_G" fill="freeze" attributeName="transform" from="-87.652 -69.396" to="-87.652 -69.396" type="translate" additive="sum" keyTimes="0;1" values="-87.652 -69.396;-87.652 -69.396" keySplines="0 0 1 1" calcMode="spline"/><animate attributeType="XML" attributeName="opacity" dur="10s" from="0" to="1" xlink:href="#time_group"/></defs><g id="_R_G"><g id="_R_G_L_11_G" transform=" translate(842.861, 385.528)"><path id="_R_G_L_11_G_D_0_P_0" fill="#181c8b" fill-opacity="1" fill-rule="nonzero" d=" M131.54 248.37 C131.54,248.37 117.09,248.37 117.09,248.37 C111.75,248.37 107.4,244.03 107.4,238.69 C107.4,238.69 107.4,226.34 107.4,226.34 C100.83,225.24 94.31,223.47 87.99,221.05 C87.99,221.05 81.77,231.82 81.77,231.82 C80.48,234.06 78.39,235.66 75.89,236.33 C73.38,237 70.77,236.66 68.54,235.37 C68.54,235.37 56.03,228.14 56.03,228.14 C51.4,225.47 49.81,219.54 52.48,214.91 C52.48,214.91 58.83,203.91 58.83,203.91 C53.79,199.67 49.12,194.89 44.93,189.67 C44.93,189.67 33.72,196.15 33.72,196.15 C29.09,198.82 23.15,197.22 20.48,192.6 C20.48,192.6 13.26,180.09 13.26,180.09 C10.59,175.46 12.18,169.53 16.8,166.85 C16.8,166.85 28.37,160.18 28.37,160.18 C26.2,154.08 24.6,147.71 23.62,141.22 C23.62,141.22 9.94,141.22 9.94,141.22 C4.6,141.22 0.25,136.88 0.25,131.54 C0.25,131.54 0.25,117.09 0.25,117.09 C0.25,111.75 4.6,107.4 9.94,107.4 C9.94,107.4 24.15,107.4 24.15,107.4 C25.3,101.12 27.05,94.95 29.36,89.02 C29.36,89.02 16.8,81.77 16.8,81.77 C12.18,79.1 10.59,73.16 13.26,68.54 C13.26,68.54 20.48,56.02 20.48,56.02 C21.78,53.78 23.86,52.18 26.36,51.51 C28.86,50.84 31.48,51.19 33.72,52.48 C33.72,52.48 46.67,59.96 46.67,59.96 C50.68,55.24 55.18,50.84 60.07,46.86 C60.07,46.86 52.48,33.72 52.48,33.72 C51.18,31.47 50.84,28.86 51.51,26.36 C52.18,23.86 53.78,21.78 56.03,20.48 C56.03,20.48 68.54,13.26 68.54,13.26 C70.78,11.96 73.39,11.62 75.89,12.29 C78.39,12.96 80.48,14.56 81.77,16.81 C81.77,16.81 89.48,30.16 89.48,30.16 C95.31,28.03 101.33,26.44 107.4,25.43 C107.4,25.43 107.4,9.94 107.4,9.94 C107.4,4.59 111.75,0.25 117.09,0.25 C117.09,0.25 131.54,0.25 131.54,0.25 C136.88,0.25 141.22,4.59 141.22,9.94 C141.22,9.94 141.22,25.43 141.22,25.43 C147.3,26.44 153.31,28.03 159.15,30.15 C159.15,30.15 166.85,16.81 166.85,16.81 C169.52,12.18 175.47,10.59 180.09,13.26 C180.09,13.26 192.6,20.48 192.6,20.48 C194.84,21.78 196.44,23.87 197.11,26.36 C197.78,28.86 197.44,31.47 196.14,33.72 C196.14,33.72 188.55,46.86 188.55,46.86 C193.44,50.84 197.93,55.23 201.95,59.96 C201.95,59.96 214.91,52.48 214.91,52.48 C217.15,51.19 219.77,50.85 222.26,51.51 C224.76,52.18 226.85,53.78 228.14,56.02 C228.14,56.02 235.36,68.54 235.36,68.54 C236.66,70.78 237,73.39 236.33,75.89 C235.66,78.39 234.06,80.48 231.82,81.77 C231.82,81.77 219.27,89.02 219.27,89.02 C221.57,94.95 223.32,101.12 224.47,107.4 C224.47,107.4 238.69,107.4 238.69,107.4 C244.03,107.4 248.37,111.75 248.37,117.09 C248.37,117.09 248.37,131.54 248.37,131.54 C248.37,136.88 244.03,141.22 238.69,141.22 C238.69,141.22 225,141.22 225,141.22 C224.02,147.72 222.42,154.09 220.25,160.18 C220.25,160.18 231.82,166.85 231.82,166.85 C234.06,168.15 235.66,170.24 236.33,172.74 C237,175.24 236.66,177.85 235.36,180.09 C235.36,180.09 228.14,192.6 228.14,192.6 C225.47,197.22 219.54,198.82 214.91,196.15 C214.91,196.15 203.7,189.67 203.7,189.67 C199.51,194.89 194.84,199.67 189.79,203.91 C189.79,203.91 196.14,214.91 196.14,214.91 C197.44,217.15 197.78,219.76 197.11,222.26 C196.44,224.76 194.84,226.85 192.6,228.14 C192.6,228.14 180.09,235.37 180.09,235.37 C175.47,238.03 169.53,236.45 166.85,231.82 C166.85,231.82 160.64,221.05 160.64,221.05 C154.31,223.47 147.79,225.24 141.22,226.34 C141.22,226.34 141.22,238.69 141.22,238.69 C141.22,244.03 136.88,248.37 131.54,248.37z  M86.81 217.68 C86.81,217.68 87.89,218.11 87.89,218.11 C94.74,220.81 101.83,222.74 108.97,223.85 C108.97,223.85 110.11,224.03 110.11,224.03 C110.11,224.03 110.11,238.69 110.11,238.69 C110.11,242.54 113.24,245.67 117.09,245.67 C117.09,245.67 131.54,245.67 131.54,245.67 C135.38,245.67 138.52,242.54 138.52,238.69 C138.52,238.69 138.52,224.03 138.52,224.03 C138.52,224.03 139.66,223.85 139.66,223.85 C146.8,222.74 153.89,220.81 160.73,218.11 C160.73,218.11 161.82,217.68 161.82,217.68 C161.82,217.68 169.2,230.47 169.2,230.47 C171.12,233.79 175.39,234.95 178.73,233.02 C178.73,233.02 191.25,225.8 191.25,225.8 C192.86,224.86 194.01,223.36 194.5,221.56 C194.98,219.76 194.73,217.88 193.8,216.26 C193.8,216.26 186.3,203.28 186.3,203.28 C186.3,203.28 187.19,202.55 187.19,202.55 C192.72,198.01 197.8,192.8 202.3,187.08 C202.3,187.08 203.03,186.16 203.03,186.16 C203.03,186.16 216.26,193.8 216.26,193.8 C219.6,195.73 223.87,194.58 225.8,191.24 C225.8,191.24 233.02,178.73 233.02,178.73 C233.95,177.12 234.2,175.24 233.72,173.44 C233.23,171.64 232.08,170.13 230.47,169.2 C230.47,169.2 216.92,161.38 216.92,161.38 C216.92,161.38 217.32,160.31 217.32,160.31 C219.76,153.72 221.5,146.78 222.49,139.68 C222.49,139.68 222.65,138.51 222.65,138.51 C222.65,138.51 238.69,138.51 238.69,138.51 C242.54,138.51 245.67,135.38 245.67,131.54 C245.67,131.54 245.67,117.09 245.67,117.09 C245.67,113.24 242.54,110.11 238.69,110.11 C238.69,110.11 222.2,110.11 222.2,110.11 C222.2,110.11 222,108.99 222,108.99 C220.82,102.11 218.91,95.37 216.32,88.93 C216.32,88.93 215.88,87.84 215.88,87.84 C215.88,87.84 230.47,79.43 230.47,79.43 C232.08,78.49 233.23,76.99 233.72,75.19 C234.2,73.39 233.95,71.51 233.02,69.89 C233.02,69.89 225.8,57.38 225.8,57.38 C224.86,55.76 223.36,54.61 221.56,54.13 C219.75,53.64 217.87,53.89 216.26,54.83 C216.26,54.83 201.34,63.44 201.34,63.44 C201.34,63.44 200.6,62.56 200.6,62.56 C196.28,57.35 191.35,52.54 185.96,48.25 C185.96,48.25 185.04,47.53 185.04,47.53 C185.04,47.53 193.8,32.36 193.8,32.36 C194.73,30.75 194.98,28.87 194.5,27.07 C194.01,25.27 192.86,23.76 191.25,22.83 C191.25,22.83 178.73,15.6 178.73,15.6 C175.41,13.68 171.12,14.83 169.2,18.16 C169.2,18.16 160.34,33.49 160.34,33.49 C160.34,33.49 159.27,33.09 159.27,33.09 C152.91,30.69 146.31,28.95 139.66,27.92 C139.66,27.92 138.52,27.74 138.52,27.74 C138.52,27.74 138.52,9.94 138.52,9.94 C138.52,6.09 135.38,2.96 131.54,2.96 C131.54,2.96 117.09,2.96 117.09,2.96 C113.24,2.96 110.11,6.09 110.11,9.94 C110.11,9.94 110.11,27.74 110.11,27.74 C110.11,27.74 108.97,27.92 108.97,27.92 C102.31,28.95 95.72,30.69 89.35,33.09 C89.35,33.09 88.28,33.49 88.28,33.49 C88.28,33.49 79.42,18.16 79.42,18.16 C78.49,16.54 76.99,15.39 75.19,14.91 C73.38,14.43 71.51,14.67 69.89,15.6 C69.89,15.6 57.38,22.83 57.38,22.83 C55.76,23.76 54.61,25.27 54.13,27.07 C53.64,28.87 53.89,30.75 54.82,32.36 C54.82,32.36 63.58,47.53 63.58,47.53 C63.58,47.53 62.67,48.25 62.67,48.25 C57.27,52.54 52.34,57.36 48.02,62.56 C48.02,62.56 47.29,63.44 47.29,63.44 C47.29,63.44 32.36,54.83 32.36,54.83 C29.03,52.9 24.75,54.04 22.83,57.38 C22.83,57.38 15.6,69.89 15.6,69.89 C13.68,73.22 14.83,77.5 18.16,79.43 C18.16,79.43 32.74,87.84 32.74,87.84 C32.74,87.84 32.3,88.93 32.3,88.93 C29.71,95.37 27.8,102.12 26.62,108.98 C26.62,108.98 26.43,110.11 26.43,110.11 C26.43,110.11 9.94,110.11 9.94,110.11 C6.09,110.11 2.96,113.24 2.96,117.09 C2.96,117.09 2.96,131.54 2.96,131.54 C2.96,135.38 6.09,138.51 9.94,138.51 C9.94,138.51 25.97,138.51 25.97,138.51 C25.97,138.51 26.13,139.68 26.13,139.68 C27.12,146.77 28.86,153.71 31.3,160.31 C31.3,160.31 31.7,161.38 31.7,161.38 C31.7,161.38 18.16,169.2 18.16,169.2 C14.83,171.12 13.68,175.4 15.6,178.73 C15.6,178.73 22.83,191.24 22.83,191.24 C24.75,194.58 29.03,195.72 32.36,193.8 C32.36,193.8 45.6,186.16 45.6,186.16 C45.6,186.16 46.33,187.08 46.33,187.08 C50.83,192.81 55.91,198.01 61.43,202.55 C61.43,202.55 62.32,203.28 62.32,203.28 C62.32,203.28 54.82,216.26 54.82,216.26 C52.9,219.59 54.05,223.87 57.38,225.8 C57.38,225.8 69.89,233.02 69.89,233.02 C71.51,233.95 73.39,234.2 75.19,233.72 C76.99,233.24 78.49,232.08 79.42,230.47 C79.42,230.47 86.81,217.68 86.81,217.68z  M124.31 182.05 C93.34,182.05 68.15,156.85 68.15,125.89 C68.15,94.92 93.34,69.72 124.31,69.72 C155.28,69.72 180.47,94.92 180.47,125.89 C180.47,156.85 155.28,182.05 124.31,182.05z  M124.31 72.43 C94.84,72.43 70.86,96.41 70.86,125.89 C70.86,155.36 94.84,179.34 124.31,179.34 C153.79,179.34 177.77,155.36 177.77,125.89 C177.77,96.41 153.79,72.43 124.31,72.43z "/></g><g id="_R_G_L_10_G" transform=" translate(330.203, 415.956)"><path id="_R_G_L_10_G_D_0_P_0" fill="#181c8b" fill-opacity="1" fill-rule="nonzero" d=" M237.42 448.37 C237.42,448.37 211.2,448.37 211.2,448.37 C202.11,448.37 194.72,440.98 194.72,431.89 C194.72,431.89 194.72,408.56 194.72,408.56 C182.25,406.53 169.88,403.16 157.9,398.51 C157.9,398.51 146.14,418.88 146.14,418.88 C143.94,422.69 140.39,425.42 136.14,426.56 C131.89,427.69 127.45,427.11 123.64,424.91 C123.64,424.91 100.93,411.8 100.93,411.8 C93.06,407.26 90.35,397.16 94.89,389.29 C94.89,389.29 106.89,368.52 106.89,368.52 C97.29,360.53 88.42,351.45 80.5,341.51 C80.5,341.51 59.33,353.73 59.33,353.73 C55.52,355.93 51.08,356.51 46.83,355.37 C42.58,354.23 39.03,351.51 36.82,347.7 C36.82,347.7 23.71,324.99 23.71,324.99 C19.17,317.12 21.88,307.02 29.74,302.48 C29.74,302.48 51.54,289.89 51.54,289.89 C47.35,278.35 44.32,266.25 42.52,253.9 C42.52,253.9 16.73,253.9 16.73,253.9 C7.64,253.9 0.25,246.51 0.25,237.42 C0.25,237.42 0.25,211.2 0.25,211.2 C0.25,202.11 7.64,194.72 16.73,194.72 C16.73,194.72 43.45,194.72 43.45,194.72 C45.58,182.77 48.91,171.03 53.35,159.77 C53.35,159.77 29.74,146.15 29.74,146.15 C21.88,141.6 19.17,131.5 23.71,123.64 C23.71,123.64 36.82,100.93 36.82,100.93 C39.03,97.12 42.58,94.39 46.83,93.25 C51.08,92.11 55.52,92.69 59.33,94.9 C59.33,94.9 83.64,108.93 83.64,108.93 C91.23,99.91 99.8,91.54 109.15,84.02 C109.15,84.02 94.89,59.33 94.89,59.33 C90.35,51.47 93.06,41.37 100.93,36.82 C100.93,36.82 123.64,23.71 123.64,23.71 C131.5,19.17 141.6,21.88 146.14,29.75 C146.14,29.75 160.6,54.78 160.6,54.78 C171.69,50.68 183.16,47.65 194.72,45.78 C194.72,45.78 194.72,16.73 194.72,16.73 C194.72,7.64 202.11,0.25 211.2,0.25 C211.2,0.25 237.42,0.25 237.42,0.25 C246.51,0.25 253.9,7.64 253.9,16.73 C253.9,16.73 253.9,45.78 253.9,45.78 C265.46,47.65 276.93,50.68 288.02,54.78 C288.02,54.78 302.48,29.75 302.48,29.75 C304.68,25.93 308.23,23.21 312.48,22.07 C316.73,20.93 321.18,21.51 324.99,23.71 C324.99,23.71 347.7,36.82 347.7,36.82 C355.56,41.37 358.27,51.47 353.73,59.33 C353.73,59.33 339.48,84.02 339.48,84.02 C348.82,91.54 357.39,99.91 364.98,108.93 C364.98,108.93 389.29,94.9 389.29,94.9 C393.11,92.69 397.54,92.11 401.79,93.25 C406.05,94.39 409.6,97.12 411.8,100.93 C411.8,100.93 424.91,123.64 424.91,123.64 C429.45,131.5 426.75,141.6 418.88,146.15 C418.88,146.15 395.28,159.77 395.28,159.77 C399.72,171.03 403.04,182.78 405.17,194.72 C405.17,194.72 431.89,194.72 431.89,194.72 C440.98,194.72 448.37,202.11 448.37,211.2 C448.37,211.2 448.37,237.42 448.37,237.42 C448.37,246.51 440.98,253.9 431.89,253.9 C431.89,253.9 406.11,253.9 406.11,253.9 C404.31,266.25 401.27,278.35 397.08,289.89 C397.08,289.89 418.88,302.48 418.88,302.48 C426.75,307.02 429.45,317.12 424.91,324.99 C424.91,324.99 411.8,347.7 411.8,347.7 C407.26,355.56 397.16,358.27 389.29,353.73 C389.29,353.73 368.12,341.51 368.12,341.51 C360.2,351.45 351.34,360.53 341.74,368.52 C341.74,368.52 353.73,389.29 353.73,389.29 C358.27,397.16 355.56,407.26 347.7,411.8 C347.7,411.8 324.99,424.91 324.99,424.91 C321.18,427.11 316.74,427.69 312.48,426.56 C308.23,425.42 304.68,422.69 302.48,418.88 C302.48,418.88 290.72,398.51 290.72,398.51 C278.75,403.16 266.37,406.53 253.9,408.56 C253.9,408.56 253.9,431.89 253.9,431.89 C253.9,440.98 246.51,448.37 237.42,448.37z  M156.72 395.14 C156.72,395.14 157.81,395.57 157.81,395.57 C170.3,400.5 183.25,404.04 196.28,406.06 C196.28,406.06 197.43,406.24 197.43,406.24 C197.43,406.24 197.43,431.89 197.43,431.89 C197.43,439.49 203.61,445.67 211.2,445.67 C211.2,445.67 237.42,445.67 237.42,445.67 C245.01,445.67 251.19,439.49 251.19,431.89 C251.19,431.89 251.19,406.24 251.19,406.24 C251.19,406.24 252.34,406.06 252.34,406.06 C265.38,404.04 278.32,400.5 290.81,395.57 C290.81,395.57 291.9,395.14 291.9,395.14 C291.9,395.14 304.82,417.52 304.82,417.52 C306.66,420.71 309.63,422.99 313.19,423.94 C316.73,424.89 320.45,424.4 323.63,422.57 C323.63,422.57 346.34,409.45 346.34,409.45 C352.92,405.66 355.18,397.22 351.38,390.64 C351.38,390.64 338.25,367.89 338.25,367.89 C338.25,367.89 339.13,367.16 339.13,367.16 C349.22,358.88 358.5,349.37 366.72,338.91 C366.72,338.91 367.45,337.99 367.45,337.99 C367.45,337.99 390.64,351.38 390.64,351.38 C397.22,355.18 405.66,352.92 409.45,346.34 C409.45,346.34 422.56,323.63 422.56,323.63 C426.36,317.06 424.1,308.62 417.52,304.82 C417.52,304.82 393.75,291.1 393.75,291.1 C393.75,291.1 394.15,290.03 394.15,290.03 C398.61,277.97 401.79,265.3 403.59,252.36 C403.59,252.36 403.75,251.19 403.75,251.19 C403.75,251.19 431.89,251.19 431.89,251.19 C439.49,251.19 445.67,245.02 445.67,237.42 C445.67,237.42 445.67,211.2 445.67,211.2 C445.67,203.61 439.49,197.43 431.89,197.43 C431.89,197.43 402.89,197.43 402.89,197.43 C402.89,197.43 402.7,196.31 402.7,196.31 C400.55,183.78 397.06,171.45 392.33,159.69 C392.33,159.69 391.89,158.6 391.89,158.6 C391.89,158.6 417.52,143.8 417.52,143.8 C424.1,140 426.36,131.57 422.56,124.99 C422.56,124.99 409.45,102.28 409.45,102.28 C407.61,99.09 404.65,96.82 401.09,95.86 C397.54,94.91 393.83,95.4 390.64,97.24 C390.64,97.24 364.36,112.41 364.36,112.41 C364.36,112.41 363.63,111.54 363.63,111.54 C355.74,102.03 346.73,93.24 336.88,85.4 C336.88,85.4 335.97,84.68 335.97,84.68 C335.97,84.68 351.38,57.98 351.38,57.98 C355.18,51.4 352.92,42.97 346.34,39.17 C346.34,39.17 323.63,26.06 323.63,26.06 C320.45,24.22 316.73,23.73 313.19,24.68 C309.63,25.64 306.66,27.91 304.82,31.1 C304.82,31.1 289.22,58.12 289.22,58.12 C289.22,58.12 288.15,57.71 288.15,57.71 C276.53,53.33 264.48,50.16 252.34,48.27 C252.34,48.27 251.19,48.09 251.19,48.09 C251.19,48.09 251.19,16.73 251.19,16.73 C251.19,9.14 245.01,2.96 237.42,2.96 C237.42,2.96 211.2,2.96 211.2,2.96 C203.61,2.96 197.43,9.14 197.43,16.73 C197.43,16.73 197.43,48.09 197.43,48.09 C197.43,48.09 196.28,48.27 196.28,48.27 C184.14,50.16 172.1,53.33 160.48,57.71 C160.48,57.71 159.4,58.12 159.4,58.12 C159.4,58.12 143.8,31.1 143.8,31.1 C141.96,27.91 138.99,25.64 135.44,24.68 C131.88,23.73 128.17,24.22 124.99,26.06 C124.99,26.06 102.28,39.17 102.28,39.17 C95.71,42.97 93.44,51.4 97.24,57.98 C97.24,57.98 112.65,84.68 112.65,84.68 C112.65,84.68 111.74,85.41 111.74,85.41 C101.89,93.24 92.89,102.03 84.99,111.54 C84.99,111.54 84.26,112.41 84.26,112.41 C84.26,112.41 57.98,97.24 57.98,97.24 C54.79,95.4 51.08,94.91 47.53,95.86 C43.98,96.82 41.01,99.09 39.17,102.28 C39.17,102.28 26.06,124.99 26.06,124.99 C22.26,131.56 24.52,140 31.1,143.8 C31.1,143.8 56.73,158.6 56.73,158.6 C56.73,158.6 56.29,159.69 56.29,159.69 C51.57,171.45 48.08,183.77 45.92,196.31 C45.92,196.31 45.73,197.43 45.73,197.43 C45.73,197.43 16.73,197.43 16.73,197.43 C9.14,197.43 2.96,203.61 2.96,211.2 C2.96,211.2 2.96,237.42 2.96,237.42 C2.96,245.02 9.14,251.19 16.73,251.19 C16.73,251.19 44.87,251.19 44.87,251.19 C44.87,251.19 45.03,252.36 45.03,252.36 C46.83,265.3 50.01,277.97 54.47,290.03 C54.47,290.03 54.87,291.1 54.87,291.1 C54.87,291.1 31.1,304.82 31.1,304.82 C24.52,308.62 22.26,317.06 26.06,323.63 C26.06,323.63 39.17,346.34 39.17,346.34 C41.01,349.53 43.98,351.81 47.53,352.76 C51.08,353.71 54.79,353.22 57.98,351.38 C57.98,351.38 81.18,337.99 81.18,337.99 C81.18,337.99 81.9,338.91 81.9,338.91 C90.12,349.37 99.4,358.88 109.49,367.16 C109.49,367.16 110.38,367.89 110.38,367.89 C110.38,367.89 97.24,390.64 97.24,390.64 C93.44,397.22 95.71,405.66 102.28,409.45 C102.28,409.45 124.99,422.57 124.99,422.57 C128.17,424.4 131.88,424.89 135.44,423.94 C138.99,422.99 141.96,420.71 143.8,417.52 C143.8,417.52 156.72,395.14 156.72,395.14z  M224.31 328 C168.71,328 123.48,282.76 123.48,227.17 C123.48,171.57 168.71,126.34 224.31,126.34 C279.91,126.34 325.14,171.57 325.14,227.17 C325.14,282.76 279.91,328 224.31,328z  M224.31 129.05 C170.21,129.05 126.19,173.06 126.19,227.17 C126.19,281.27 170.21,325.29 224.31,325.29 C278.42,325.29 322.43,281.27 322.43,227.17 C322.43,173.06 278.42,129.05 224.31,129.05z "/></g><g id="_R_G_L_9_G" transform=" translate(151.56, 914.524)"><path id="_R_G_L_9_G_D_0_P_0" fill="#ffc28f" fill-opacity="1" fill-rule="nonzero" d=" M129.33 207.25 C129.33,207.25 134.78,117.29 77.1,71.31 C19.43,25.33 2.8,2.42 0.25,0.25 C28.76,80.97 66.01,128.44 86.36,144.8 C106.7,161.17 129.33,207.25 129.33,207.25z "/><path id="_R_G_L_9_G_D_1_P_0" fill="#ff912b" fill-opacity="1" fill-rule="nonzero" d=" M129.33 207.25 C129.33,207.25 128.23,136.71 70.55,90.73 C12.87,44.75 2.8,2.42 0.25,0.25 C28.76,80.97 66.01,128.44 86.36,144.8 C106.7,161.17 129.33,207.25 129.33,207.25z "/></g><g id="_R_G_L_8_G" transform=" translate(160.021, 914.524)"><path id="_R_G_L_8_G_D_0_P_0" fill="#ffc28f" fill-opacity="1" fill-rule="nonzero" d=" M94.35 291.39 C94.35,291.39 126.5,186.55 71.18,111.66 C15.85,36.77 2.65,3.73 0.25,0.25 C11.05,106.09 41.71,175.55 61.18,202.14 C80.65,228.74 94.35,291.39 94.35,291.39z "/><path id="_R_G_L_8_G_D_1_P_0" fill="#ff912b" fill-opacity="1" fill-rule="nonzero" d=" M94.35 291.39 C94.35,291.39 113.18,207.29 57.85,132.4 C2.53,57.51 2.65,3.73 0.25,0.25 C11.05,106.09 41.7,175.55 61.18,202.14 C80.65,228.74 94.35,291.39 94.35,291.39z "/></g><g id="_R_G_L_7_G" transform=" translate(552.738, 529) translate(-505.959, -460.738)"><path id="_R_G_L_7_G_D_0_P_0" fill="#ffc99c" fill-opacity="1" fill-rule="nonzero" d=" M1004.34 879.35 C1004.34,902.48 779.75,921.23 502.7,921.23 C225.65,921.23 1.06,902.48 1.06,879.35 C1.06,856.22 225.65,837.47 502.7,837.47 C779.75,837.47 1004.34,856.22 1004.34,879.35z "/><path id="_R_G_L_7_G_D_1_P_0" fill="#181c8b" fill-opacity="1" fill-rule="nonzero" d=" M305.28 95.37 C297.19,95.37 290.62,88.79 290.62,80.71 C290.62,72.62 297.19,66.04 305.28,66.04 C313.37,66.04 319.95,72.62 319.95,80.71 C319.95,88.79 313.37,95.37 305.28,95.37z  M305.28 68.75 C298.69,68.75 293.32,74.11 293.32,80.71 C293.32,87.3 298.69,92.67 305.28,92.67 C311.87,92.67 317.24,87.3 317.24,80.71 C317.24,74.11 311.87,68.75 305.28,68.75z "/><path id="_R_G_L_7_G_D_2_P_0" fill="#181c8b" fill-opacity="1" fill-rule="nonzero" d=" M531.49 29.58 C523.41,29.58 516.82,23 516.82,14.92 C516.82,6.83 523.41,0.25 531.49,0.25 C539.58,0.25 546.16,6.83 546.16,14.92 C546.16,23 539.58,29.58 531.49,29.58z  M531.49 2.96 C524.9,2.96 519.53,8.32 519.53,14.92 C519.53,21.51 524.9,26.87 531.49,26.87 C538.09,26.87 543.45,21.51 543.45,14.92 C543.45,8.32 538.09,2.96 531.49,2.96z "/><path id="_R_G_L_7_G_D_3_P_0" fill="#181c8b" fill-opacity="1" fill-rule="nonzero" d=" M599.17 208.39 C593.19,208.39 588.33,203.53 588.33,197.56 C588.33,191.58 593.19,186.72 599.17,186.72 C605.14,186.72 610,191.58 610,197.56 C610,203.53 605.14,208.39 599.17,208.39z  M599.17 188.72 C594.3,188.72 590.33,192.69 590.33,197.56 C590.33,202.43 594.3,206.39 599.17,206.39 C604.04,206.39 608,202.43 608,197.56 C608,192.69 604.04,188.72 599.17,188.72z "/><path id="_R_G_L_7_G_D_4_P_0" fill="#181c8b" fill-opacity="1" fill-rule="nonzero" d=" M14.92 175.71 C6.83,175.71 0.25,169.13 0.25,161.05 C0.25,152.96 6.83,146.38 14.92,146.38 C23,146.38 29.58,152.96 29.58,161.05 C29.58,169.13 23,175.71 14.92,175.71z  M14.92 149.09 C8.32,149.09 2.96,154.45 2.96,161.05 C2.96,167.64 8.32,173.01 14.92,173.01 C21.51,173.01 26.87,167.64 26.87,161.05 C26.87,154.45 21.51,149.09 14.92,149.09z "/><path id="_R_G_L_7_G_D_5_P_0" fill="#181c8b" fill-opacity="1" fill-rule="nonzero" d=" M997 195.21 C988.91,195.21 982.34,188.63 982.34,180.55 C982.34,172.46 988.91,165.88 997,165.88 C1005.09,165.88 1011.67,172.46 1011.67,180.55 C1011.67,188.63 1005.09,195.21 997,195.21z  M997 168.59 C990.41,168.59 985.04,173.95 985.04,180.55 C985.04,187.14 990.41,192.51 997,192.51 C1003.59,192.51 1008.96,187.14 1008.96,180.55 C1008.96,173.95 1003.59,168.59 997,168.59z "/><path id="_R_G_L_7_G_D_6_P_0" fill="#181c8b" fill-opacity="1" fill-rule="nonzero" d=" M953.67 313.49 C945.58,313.49 939,306.91 939,298.83 C939,290.74 945.58,284.16 953.67,284.16 C961.76,284.16 968.34,290.74 968.34,298.83 C968.34,306.91 961.76,313.49 953.67,313.49z  M953.67 286.87 C947.08,286.87 941.71,292.23 941.71,298.83 C941.71,305.42 947.08,310.78 953.67,310.78 C960.26,310.78 965.63,305.42 965.63,298.83 C965.63,292.23 960.26,286.87 953.67,286.87z "/><path id="_R_G_L_7_G_D_7_P_0" fill="#181c8b" fill-opacity="1" fill-rule="nonzero" d=" M44.25 296.52 C39.31,296.52 35.3,292.51 35.3,287.57 C35.3,282.64 39.31,278.62 44.25,278.62 C49.18,278.62 53.19,282.64 53.19,287.57 C53.19,292.51 49.18,296.52 44.25,296.52z  M44.25 280.28 C40.23,280.28 36.95,283.55 36.95,287.57 C36.95,291.59 40.23,294.87 44.25,294.87 C48.27,294.87 51.54,291.59 51.54,287.57 C51.54,283.55 48.27,280.28 44.25,280.28z "/><path id="_R_G_L_7_G_D_8_P_0" fill="#424241" fill-opacity="1" fill-rule="nonzero" d=" M846.12 812.69 C846.12,812.69 142.53,812.69 142.53,812.69 C138.69,812.69 135.58,809.58 135.58,805.74 C135.58,805.74 135.58,362.31 135.58,362.31 C135.58,358.47 138.69,355.35 142.53,355.35 C142.53,355.35 846.12,355.35 846.12,355.35 C849.96,355.35 853.07,358.47 853.07,362.31 C853.07,362.31 853.07,805.74 853.07,805.74 C853.07,809.58 849.96,812.69 846.12,812.69z "/><path id="_R_G_L_7_G_D_9_P_0" fill="#ccd5ff" fill-opacity="1" fill-rule="nonzero" d=" M844.95 772.06 C844.95,772.06 143.7,772.06 143.7,772.06 C143.7,772.06 143.7,389.2 143.7,389.2 C143.7,389.2 844.95,389.2 844.95,389.2 C844.95,389.2 844.95,772.06 844.95,772.06z "/><path id="_R_G_L_7_G_D_10_P_0" fill="#fff6f6" fill-opacity="1" fill-rule="nonzero" d=" M501.47 389.2 C501.47,389.2 143.7,389.2 143.7,389.2 C143.7,389.2 143.7,772.06 143.7,772.06 C143.7,772.06 501.47,772.06 501.47,772.06 C501.47,772.06 501.47,389.2 501.47,389.2z "/><path id="_R_G_L_7_G_D_11_P_0" fill="#d6e7ea" fill-opacity="1" fill-rule="nonzero" d=" M410.05 464.96 C410.05,464.96 183.97,464.96 183.97,464.96 C183.97,464.96 183.97,459.54 183.97,459.54 C183.97,459.54 410.05,459.54 410.05,459.54 C410.05,459.54 410.05,464.96 410.05,464.96z "/><path id="_R_G_L_7_G_D_12_P_0" fill="#d6e7ea" fill-opacity="1" fill-rule="nonzero" d=" M458.92 485.13 C458.92,485.13 183.97,485.13 183.97,485.13 C183.97,485.13 183.97,479.16 183.97,479.16 C183.97,479.16 458.92,479.16 458.92,479.16 C458.92,479.16 458.92,485.13 458.92,485.13z "/><path id="_R_G_L_7_G_D_13_P_0" fill="#d6e7ea" fill-opacity="1" fill-rule="nonzero" d=" M364.93 499.06 C364.93,499.06 183.97,499.06 183.97,499.06 C183.97,499.06 183.97,505.03 183.97,505.03 C183.97,505.03 364.93,505.03 364.93,505.03 C364.93,505.03 364.93,499.06 364.93,499.06z "/><path id="_R_G_L_7_G_D_14_P_0" fill="#d6e7ea" fill-opacity="1" fill-rule="nonzero" d=" M387.94 505.03 C387.94,505.03 458.92,505.03 458.92,505.03 C458.92,505.03 458.92,499.06 458.92,499.06 C458.92,499.06 387.94,499.06 387.94,499.06 C387.94,499.06 387.94,505.03 387.94,505.03z "/><path id="_R_G_L_7_G_D_15_P_0" fill="#d6e7ea" fill-opacity="1" fill-rule="nonzero" d=" M458.92 505.03 C458.92,505.03 183.97,505.03 183.97,505.03 "/><path id="_R_G_L_7_G_D_16_P_0" fill="#d6e7ea" fill-opacity="1" fill-rule="nonzero" d=" M458.92 524.93 C458.92,524.93 183.97,524.93 183.97,524.93 C183.97,524.93 183.97,518.96 183.97,518.96 C183.97,518.96 458.92,518.96 458.92,518.96 C458.92,518.96 458.92,524.93 458.92,524.93z "/><path id="_R_G_L_7_G_D_17_P_0" fill="#d6e7ea" fill-opacity="1" fill-rule="nonzero" d=" M458.92 544.83 C458.92,544.83 183.97,544.83 183.97,544.83 C183.97,544.83 183.97,538.86 183.97,538.86 C183.97,538.86 458.92,538.86 458.92,538.86 C458.92,538.86 458.92,544.83 458.92,544.83z "/><path id="_R_G_L_7_G_D_18_P_0" fill="#d6e7ea" fill-opacity="1" fill-rule="nonzero" d=" M252.12 564.73 C252.12,564.73 458.92,564.73 458.92,564.73 C458.92,564.73 458.92,558.75 458.92,558.75 C458.92,558.75 252.12,558.75 252.12,558.75 C252.12,558.75 252.12,564.73 252.12,564.73z "/><path id="_R_G_L_7_G_D_19_P_0" fill="#d6e7ea" fill-opacity="1" fill-rule="nonzero" d=" M231.36 558.75 C231.36,558.75 183.97,558.75 183.97,558.75 C183.97,558.75 183.97,564.73 183.97,564.73 C183.97,564.73 231.36,564.73 231.36,564.73 C231.36,564.73 231.36,558.75 231.36,558.75z "/><path id="_R_G_L_7_G_D_20_P_0" fill="#d6e7ea" fill-opacity="1" fill-rule="nonzero" d=" M410.05 605.66 C410.05,605.66 183.97,605.66 183.97,605.66 C183.97,605.66 183.97,600.24 183.97,600.24 C183.97,600.24 410.05,600.24 410.05,600.24 C410.05,600.24 410.05,605.66 410.05,605.66z "/><path id="_R_G_L_7_G_D_21_P_0" fill="#d6e7ea" fill-opacity="1" fill-rule="nonzero" d=" M458.92 625.84 C458.92,625.84 183.97,625.84 183.97,625.84 C183.97,625.84 183.97,619.86 183.97,619.86 C183.97,619.86 458.92,619.86 458.92,619.86 C458.92,619.86 458.92,625.84 458.92,625.84z "/><path id="_R_G_L_7_G_D_22_P_0" fill="#d6e7ea" fill-opacity="1" fill-rule="nonzero" d=" M387.04 645.74 C387.04,645.74 458.92,645.74 458.92,645.74 C458.92,645.74 458.92,639.76 458.92,639.76 C458.92,639.76 387.04,639.76 387.04,639.76 C387.04,639.76 387.04,645.74 387.04,645.74z "/><path id="_R_G_L_7_G_D_23_P_0" fill="#d6e7ea" fill-opacity="1" fill-rule="nonzero" d=" M226.85 639.76 C226.85,639.76 183.97,639.76 183.97,639.76 C183.97,639.76 183.97,645.74 183.97,645.74 C183.97,645.74 226.85,645.74 226.85,645.74 C226.85,645.74 226.85,639.76 226.85,639.76z "/><path id="_R_G_L_7_G_D_24_P_0" fill="#d6e7ea" fill-opacity="1" fill-rule="nonzero" d=" M251.21 645.74 C251.21,645.74 362.22,645.74 362.22,645.74 C362.22,645.74 362.22,639.76 362.22,639.76 C362.22,639.76 251.21,639.76 251.21,639.76 C251.21,639.76 251.21,645.74 251.21,645.74z "/><path id="_R_G_L_7_G_D_25_P_0" fill="#d6e7ea" fill-opacity="1" fill-rule="nonzero" d=" M458.92 665.63 C458.92,665.63 183.97,665.63 183.97,665.63 C183.97,665.63 183.97,659.66 183.97,659.66 C183.97,659.66 458.92,659.66 458.92,659.66 C458.92,659.66 458.92,665.63 458.92,665.63z "/><path id="_R_G_L_7_G_D_26_P_0" fill="#d6e7ea" fill-opacity="1" fill-rule="nonzero" d=" M411.86 679.56 C411.86,679.56 183.97,679.56 183.97,679.56 C183.97,679.56 183.97,685.53 183.97,685.53 C183.97,685.53 411.86,685.53 411.86,685.53 C411.86,685.53 411.86,679.56 411.86,679.56z "/><path id="_R_G_L_7_G_D_27_P_0" fill="#d6e7ea" fill-opacity="1" fill-rule="nonzero" d=" M432.17 685.53 C432.17,685.53 458.92,685.53 458.92,685.53 C458.92,685.53 458.92,679.56 458.92,679.56 C458.92,679.56 432.17,679.56 432.17,679.56 C432.17,679.56 432.17,685.53 432.17,685.53z "/><path id="_R_G_L_7_G_D_28_P_0" fill="#d6e7ea" fill-opacity="1" fill-rule="nonzero" d=" M458.92 705.43 C458.92,705.43 183.97,705.43 183.97,705.43 C183.97,705.43 183.97,699.46 183.97,699.46 C183.97,699.46 458.92,699.46 458.92,699.46 C458.92,699.46 458.92,705.43 458.92,705.43z "/><path id="_R_G_L_7_G_D_29_P_0" fill="#12196b" fill-opacity="1" fill-rule="nonzero" d=" M755.72 605.66 C755.72,605.66 529.64,605.66 529.64,605.66 C529.64,605.66 529.64,600.24 529.64,600.24 C529.64,600.24 755.72,600.24 755.72,600.24 C755.72,600.24 755.72,605.66 755.72,605.66z "/><path id="_R_G_L_7_G_D_30_P_0" fill="#12196b" fill-opacity="1" fill-rule="nonzero" d=" M623.5 625.84 C623.5,625.84 804.58,625.84 804.58,625.84 C804.58,625.84 804.58,619.86 804.58,619.86 C804.58,619.86 623.5,619.86 623.5,619.86 C623.5,619.86 623.5,625.84 623.5,625.84z "/><path id="_R_G_L_7_G_D_31_P_0" fill="#12196b" fill-opacity="1" fill-rule="nonzero" d=" M598.68 619.86 C598.68,619.86 529.64,619.86 529.64,619.86 C529.64,619.86 529.64,625.84 529.64,625.84 C529.64,625.84 598.68,625.84 598.68,625.84 C598.68,625.84 598.68,619.86 598.68,619.86z "/><path id="_R_G_L_7_G_D_32_P_0" fill="#12196b" fill-opacity="1" fill-rule="nonzero" d=" M804.58 645.74 C804.58,645.74 529.64,645.74 529.64,645.74 C529.64,645.74 529.64,639.76 529.64,639.76 C529.64,639.76 804.58,639.76 804.58,639.76 C804.58,639.76 804.58,645.74 804.58,645.74z "/><path id="_R_G_L_7_G_D_33_P_0" fill="#12196b" fill-opacity="1" fill-rule="nonzero" d=" M654.18 659.66 C654.18,659.66 529.64,659.66 529.64,659.66 C529.64,659.66 529.64,665.63 529.64,665.63 C529.64,665.63 654.18,665.63 654.18,665.63 C654.18,665.63 654.18,659.66 654.18,659.66z "/><path id="_R_G_L_7_G_D_34_P_0" fill="#12196b" fill-opacity="1" fill-rule="nonzero" d=" M678.1 665.63 C678.1,665.63 804.58,665.63 804.58,665.63 C804.58,665.63 804.58,659.66 804.58,659.66 C804.58,659.66 678.1,659.66 678.1,659.66 C678.1,659.66 678.1,665.63 678.1,665.63z "/><path id="_R_G_L_7_G_D_35_P_0" fill="#12196b" fill-opacity="1" fill-rule="nonzero" d=" M804.58 685.53 C804.58,685.53 529.64,685.53 529.64,685.53 C529.64,685.53 529.64,679.56 529.64,679.56 C529.64,679.56 804.58,679.56 804.58,679.56 C804.58,679.56 804.58,685.53 804.58,685.53z "/><path id="_R_G_L_7_G_D_36_P_0" fill="#12196b" fill-opacity="1" fill-rule="nonzero" d=" M612.67 705.43 C612.67,705.43 804.58,705.43 804.58,705.43 C804.58,705.43 804.58,699.46 804.58,699.46 C804.58,699.46 612.67,699.46 612.67,699.46 C612.67,699.46 612.67,705.43 612.67,705.43z "/><path id="_R_G_L_7_G_D_37_P_0" fill="#12196b" fill-opacity="1" fill-rule="nonzero" d=" M589.65 699.46 C589.65,699.46 529.64,699.46 529.64,699.46 C529.64,699.46 529.64,705.43 529.64,705.43 C529.64,705.43 589.65,705.43 589.65,705.43 C589.65,705.43 589.65,699.46 589.65,699.46z "/><path id="_R_G_L_7_G_D_38_P_0" fill="#424241" fill-opacity="1" fill-rule="nonzero" d=" M931.21 873.25 C931.21,873.25 57.44,873.25 57.44,873.25 C47.51,873.25 39.46,865.2 39.46,855.27 C39.46,855.27 39.46,809.68 39.46,809.68 C39.46,809.68 949.19,809.68 949.19,809.68 C949.19,809.68 949.19,855.27 949.19,855.27 C949.19,865.2 941.14,873.25 931.21,873.25z "/><path id="_R_G_L_7_G_D_39_P_0" fill="#010205" fill-opacity="1" fill-rule="nonzero" d=" M949.07 830.07 C949.11,829.3 949.19,828.53 949.19,827.75 C949.19,827.75 949.19,809.68 949.19,809.68 C949.19,809.68 39.46,809.68 39.46,809.68 C39.46,809.68 39.46,827.75 39.46,827.75 C39.46,828.53 39.54,829.3 39.58,830.07 C39.58,830.07 949.07,830.07 949.07,830.07z "/><path id="_R_G_L_7_G_D_40_P_0" fill="#010205" fill-opacity="1" fill-rule="nonzero" d=" M91.58 846.26 C91.58,850.94 87.79,854.72 83.12,854.72 C78.45,854.72 74.66,850.94 74.66,846.26 C74.66,841.59 78.45,837.8 83.12,837.8 C87.79,837.8 91.58,841.59 91.58,846.26z "/><path id="_R_G_L_7_G_D_41_P_0" fill="#010205" fill-opacity="1" fill-rule="nonzero" d=" M121.7 846.26 C121.7,850.94 117.91,854.72 113.24,854.72 C108.57,854.72 104.78,850.94 104.78,846.26 C104.78,841.59 108.57,837.8 113.24,837.8 C117.91,837.8 121.7,841.59 121.7,846.26z "/><path id="_R_G_L_7_G_D_42_P_0" fill="#010205" fill-opacity="1" fill-rule="nonzero" d=" M904.63 851.73 C904.63,851.73 861.31,851.73 861.31,851.73 C861.31,851.73 861.31,839.1 861.31,839.1 C861.31,839.1 904.63,839.1 904.63,839.1 C904.63,839.1 904.63,851.73 904.63,851.73z "/><path id="_R_G_L_7_G_D_43_P_0" fill="#ff6d5a" fill-opacity="1" fill-rule="nonzero" d=" M269.47 896.62 C267.48,896.62 265.87,895 265.87,893.01 C265.87,893.01 265.87,331.1 265.87,331.1 C265.87,329.11 267.48,327.49 269.47,327.49 C271.46,327.49 273.07,329.11 273.07,331.1 C273.07,331.1 273.07,893.01 273.07,893.01 C273.07,895 271.46,896.62 269.47,896.62z "/><path id="_R_G_L_7_G_D_44_P_0" fill="#ff6d5a" fill-opacity="1" fill-rule="nonzero" d=" M351.75 896.62 C349.77,896.62 348.15,895 348.15,893.01 C348.15,893.01 348.15,331.1 348.15,331.1 C348.15,329.11 349.77,327.49 351.75,327.49 C353.74,327.49 355.36,329.11 355.36,331.1 C355.36,331.1 355.36,893.01 355.36,893.01 C355.36,895 353.74,896.62 351.75,896.62z "/><path id="_R_G_L_7_G_D_45_P_0" fill="#ff6d5a" fill-opacity="1" fill-rule="nonzero" d=" M351.75 376.42 C351.75,376.42 269.47,376.42 269.47,376.42 C267.48,376.42 265.87,374.81 265.87,372.82 C265.87,370.83 267.48,369.22 269.47,369.22 C269.47,369.22 351.75,369.22 351.75,369.22 C353.74,369.22 355.36,370.83 355.36,372.82 C355.36,374.81 353.74,376.42 351.75,376.42z "/><path id="_R_G_L_7_G_D_46_P_0" fill="#ff6d5a" fill-opacity="1" fill-rule="nonzero" d=" M351.75 429.85 C351.75,429.85 269.47,429.85 269.47,429.85 C267.48,429.85 265.87,428.24 265.87,426.25 C265.87,424.26 267.48,422.65 269.47,422.65 C269.47,422.65 351.75,422.65 351.75,422.65 C353.74,422.65 355.36,424.26 355.36,426.25 C355.36,428.24 353.74,429.85 351.75,429.85z "/><path id="_R_G_L_7_G_D_47_P_0" fill="#ff6d5a" fill-opacity="1" fill-rule="nonzero" d=" M351.75 483.28 C351.75,483.28 269.47,483.28 269.47,483.28 C267.48,483.28 265.87,481.67 265.87,479.68 C265.87,477.69 267.48,476.08 269.47,476.08 C269.47,476.08 351.75,476.08 351.75,476.08 C353.74,476.08 355.36,477.69 355.36,479.68 C355.36,481.67 353.74,483.28 351.75,483.28z "/><path id="_R_G_L_7_G_D_48_P_0" fill="#ff6d5a" fill-opacity="1" fill-rule="nonzero" d=" M351.75 536.71 C351.75,536.71 269.47,536.71 269.47,536.71 C267.48,536.71 265.87,535.1 265.87,533.11 C265.87,531.12 267.48,529.51 269.47,529.51 C269.47,529.51 351.75,529.51 351.75,529.51 C353.74,529.51 355.36,531.12 355.36,533.11 C355.36,535.1 353.74,536.71 351.75,536.71z "/><path id="_R_G_L_7_G_D_49_P_0" fill="#ff6d5a" fill-opacity="1" fill-rule="nonzero" d=" M351.75 590.14 C351.75,590.14 269.47,590.14 269.47,590.14 C267.48,590.14 265.87,588.53 265.87,586.54 C265.87,584.55 267.48,582.94 269.47,582.94 C269.47,582.94 351.75,582.94 351.75,582.94 C353.74,582.94 355.36,584.55 355.36,586.54 C355.36,588.53 353.74,590.14 351.75,590.14z "/><path id="_R_G_L_7_G_D_50_P_0" fill="#ff6d5a" fill-opacity="1" fill-rule="nonzero" d=" M351.75 643.57 C351.75,643.57 269.47,643.57 269.47,643.57 C267.48,643.57 265.87,641.96 265.87,639.97 C265.87,637.98 267.48,636.37 269.47,636.37 C269.47,636.37 351.75,636.37 351.75,636.37 C353.74,636.37 355.36,637.98 355.36,639.97 C355.36,641.96 353.74,643.57 351.75,643.57z "/><path id="_R_G_L_7_G_D_51_P_0" fill="#ff6d5a" fill-opacity="1" fill-rule="nonzero" d=" M351.75 697 C351.75,697 269.47,697 269.47,697 C267.48,697 265.87,695.39 265.87,693.4 C265.87,691.41 267.48,689.8 269.47,689.8 C269.47,689.8 351.75,689.8 351.75,689.8 C353.74,689.8 355.36,691.41 355.36,693.4 C355.36,695.39 353.74,697 351.75,697z "/><path id="_R_G_L_7_G_D_52_P_0" fill="#ff6d5a" fill-opacity="1" fill-rule="nonzero" d=" M351.75 750.43 C351.75,750.43 269.47,750.43 269.47,750.43 C267.48,750.43 265.87,748.82 265.87,746.83 C265.87,744.84 267.48,743.23 269.47,743.23 C269.47,743.23 351.75,743.23 351.75,743.23 C353.74,743.23 355.36,744.84 355.36,746.83 C355.36,748.82 353.74,750.43 351.75,750.43z "/><path id="_R_G_L_7_G_D_53_P_0" fill="#ff6d5a" fill-opacity="1" fill-rule="nonzero" d=" M351.75 803.86 C351.75,803.86 269.47,803.86 269.47,803.86 C267.48,803.86 265.87,802.25 265.87,800.26 C265.87,798.27 267.48,796.66 269.47,796.66 C269.47,796.66 351.75,796.66 351.75,796.66 C353.74,796.66 355.36,798.27 355.36,800.26 C355.36,802.25 353.74,803.86 351.75,803.86z "/><path id="_R_G_L_7_G_D_54_P_0" fill="#ff6d5a" fill-opacity="1" fill-rule="nonzero" d=" M351.75 857.29 C351.75,857.29 269.47,857.29 269.47,857.29 C267.48,857.29 265.87,855.68 265.87,853.69 C265.87,851.7 267.48,850.09 269.47,850.09 C269.47,850.09 351.75,850.09 351.75,850.09 C353.74,850.09 355.36,851.7 355.36,853.69 C355.36,855.68 353.74,857.29 351.75,857.29z "/><path id="_R_G_L_7_G_D_55_P_0" fill="#ffac83" fill-opacity="1" fill-rule="nonzero" d=" M556.39 444.95 C556.39,444.95 554.7,454.67 554.7,454.67 C554.7,454.67 542.77,448.62 542.3,446.87 C543.59,444.19 544.23,441.98 544.23,441.98 C544.23,441.98 556.39,444.95 556.39,444.95z "/><path id="_R_G_L_7_G_D_56_P_0" fill="#ff6d5a" fill-opacity="1" fill-rule="nonzero" d=" M542.66 462.18 C542.66,462.18 563.6,478.28 568.26,481.73 C572.91,485.18 580.83,474.98 572.91,468.21 C565,461.43 559.41,452.87 559.64,448.91 C558.15,444.68 553.47,449.37 552.08,450.07 C550.68,450.77 544.4,448.09 543.82,442.86 C538.7,446.58 535.44,454.61 535.44,454.61 C535.44,454.61 535.44,456.63 542.66,462.18z "/><path id="_R_G_L_7_G_D_57_P_0" fill="#dddddd" fill-opacity="1" fill-rule="nonzero" d=" M572.06 479.67 C567.41,476.22 543.97,458.3 543.97,458.3 C540.07,455.1 537.87,452.29 537.1,451.21 C536.03,453.16 535.44,454.61 535.44,454.61 C535.44,454.61 535.44,456.63 542.65,462.18 C542.65,462.18 563.6,478.28 568.26,481.73 C570.19,483.16 572.67,482.22 574.36,480.18 C573.61,480.35 572.83,480.24 572.06,479.67z "/><path id="_R_G_L_7_G_D_58_P_0" fill="#ffac83" fill-opacity="1" fill-rule="nonzero" d=" M504.03 444.95 C504.03,444.95 505.71,454.67 505.71,454.67 C505.71,454.67 517.64,448.62 518.11,446.87 C516.83,444.19 516.19,441.98 516.19,441.98 C516.19,441.98 504.03,444.95 504.03,444.95z "/><path id="_R_G_L_7_G_D_59_P_0" fill="#ff6d5a" fill-opacity="1" fill-rule="nonzero" d=" M517.76 462.18 C517.76,462.18 496.81,478.28 492.16,481.73 C487.5,485.18 479.59,474.98 487.5,468.21 C495.41,461.43 501.01,452.87 500.77,448.91 C502.26,444.68 506.94,449.37 508.34,450.07 C509.73,450.77 516.01,448.09 516.6,442.86 C521.72,446.58 524.97,454.61 524.97,454.61 C524.97,454.61 524.98,456.63 517.76,462.18z "/><path id="_R_G_L_7_G_D_60_P_0" fill="#dddddd" fill-opacity="1" fill-rule="nonzero" d=" M488.35 479.67 C493.01,476.22 516.44,458.3 516.44,458.3 C520.34,455.1 522.54,452.29 523.32,451.21 C524.38,453.16 524.97,454.61 524.97,454.61 C524.97,454.61 524.97,456.63 517.76,462.18 C517.76,462.18 496.81,478.28 492.15,481.73 C490.22,483.16 487.74,482.22 486.05,480.18 C486.8,480.35 487.59,480.24 488.35,479.67z "/><path id="_R_G_L_7_G_D_61_P_0" fill="#12196b" fill-opacity="1" fill-rule="nonzero" d=" M581.53 351.38 C577.07,340.83 556.85,341 556.85,341 C556.85,341 530.51,342.24 530.51,342.24 C530.51,342.24 530.42,342.69 530.3,343.42 C530.17,342.69 530.09,342.24 530.09,342.24 C530.09,342.24 503.75,341 503.75,341 C503.75,341 482.45,340.52 477.98,351.07 C473.52,361.62 501,443.72 503.75,446.2 C513.64,444.34 517.05,443.1 517.05,443.1 C517.05,443.1 506.5,381.91 501.22,367.33 C506.5,359.26 527.6,360.29 530.09,359.49 C530.17,359.46 530.23,359.39 530.3,359.34 C530.37,359.39 530.43,359.46 530.51,359.49 C532.99,360.29 554.59,358.5 559.87,366.57 C554.59,381.16 543.55,443.1 543.55,443.1 C543.55,443.1 546.96,444.34 556.85,446.2 C559.59,443.72 585.99,361.93 581.53,351.38z "/><path id="_R_G_L_7_G_D_62_P_0" fill="#8594ff" fill-opacity="1" fill-rule="nonzero" d=" M487.04 281.21 C487.04,281.21 499.53,284.12 504.77,291.63 C510.48,267.91 521.81,249.43 521.81,249.43 C521.81,249.43 501.36,249.63 495.7,264.81 C492.11,274.43 487.04,281.21 487.04,281.21z "/><path id="_R_G_L_7_G_D_63_P_0" fill="#8594ff" fill-opacity="1" fill-rule="nonzero" d=" M572.03 281.21 C572.03,281.21 559.54,284.12 554.3,291.63 C548.58,267.91 537.26,249.43 537.26,249.43 C537.26,249.43 554.19,247.58 562.12,261.7 C568.66,273.36 572.03,281.21 572.03,281.21z "/><path id="_R_G_L_7_G_D_64_P_0" fill="#8594ff" fill-opacity="1" fill-rule="nonzero" d=" M529.94 248.44 C529.94,248.44 509.17,245.77 505.36,259.49 C501.55,273.21 508.79,319.27 508.79,319.27 C508.79,319.27 550.34,319.27 550.34,319.27 C550.34,319.27 559.86,278.53 555.86,259.08 C553.76,248.44 537.19,248.52 529.94,248.44z "/><path id="_R_G_L_7_G_D_65_P_0" fill="#ffbaac" fill-opacity="1" fill-rule="nonzero" d=" M523.05 236.84 C523.05,236.84 524.22,243.79 522.63,249.35 C521.64,252.5 520.57,258.81 530.03,258.87 C537.59,258.91 538.99,255.98 539.15,252.19 C539.16,251.83 538.28,249.3 537.95,248.07 C536.71,243.37 537.4,239.05 537.26,236.66 C533.26,236.42 523.05,236.84 523.05,236.84z "/><path id="_R_G_L_7_G_D_66_P_0" fill="#ffbaac" fill-opacity="1" fill-rule="nonzero" d=" M544.18 225.36 C544.18,234.72 538,242.32 530.37,242.32 C522.75,242.32 516.56,234.72 516.56,225.36 C516.56,215.99 522.75,208.39 530.37,208.39 C538,208.39 544.18,215.99 544.18,225.36z "/><path id="_R_G_L_7_G_D_67_P_0" fill="#ffbaac" fill-opacity="1" fill-rule="nonzero" d=" M543.31 224.57 C543.31,224.57 544.73,221.96 546.78,223.46 C548.84,224.96 545.95,230.94 544.65,231.04 C543.36,231.13 542.68,229.03 542.76,228.54 C542.84,228.04 543.31,224.57 543.31,224.57z "/><path id="_R_G_L_7_G_D_68_P_0" fill="#ffbaac" fill-opacity="1" fill-rule="nonzero" d=" M517.59 224.57 C517.59,224.57 516.17,221.96 514.12,223.46 C512.07,224.96 514.96,230.94 516.25,231.04 C517.55,231.13 518.22,229.03 518.15,228.54 C518.07,228.04 517.59,224.57 517.59,224.57z "/><path id="_R_G_L_7_G_D_69_P_0" fill="#12196b" fill-opacity="1" fill-rule="nonzero" d=" M537.04 225.32 C537.04,225.94 536.64,226.44 536.15,226.44 C535.66,226.44 535.26,225.94 535.26,225.32 C535.26,224.69 535.66,224.19 536.15,224.19 C536.64,224.19 537.04,224.69 537.04,225.32z "/><path id="_R_G_L_7_G_D_70_P_0" fill="#ffffff" fill-opacity="1" fill-rule="nonzero" d=" M536.39 225.77 C536.39,225.97 536.25,226.13 536.08,226.13 C535.92,226.13 535.78,225.97 535.78,225.77 C535.78,225.57 535.92,225.41 536.08,225.41 C536.25,225.41 536.39,225.57 536.39,225.77z "/><path id="_R_G_L_7_G_D_71_P_0" fill="#12196b" fill-opacity="1" fill-rule="nonzero" d=" M539.35 223.96 C539.35,223.96 537.93,221.83 535.92,221.44 C533.9,221.06 533.84,222.68 534.58,222.86 C535.32,223.04 537.72,223.13 539.35,223.96z "/><path id="_R_G_L_7_G_D_72_P_0" fill="#12196b" fill-opacity="1" fill-rule="nonzero" d=" M524.28 225.32 C524.28,225.94 524.68,226.44 525.17,226.44 C525.66,226.44 526.06,225.94 526.06,225.32 C526.06,224.69 525.66,224.19 525.17,224.19 C524.68,224.19 524.28,224.69 524.28,225.32z "/><path id="_R_G_L_7_G_D_73_P_0" fill="#ffffff" fill-opacity="1" fill-rule="nonzero" d=" M524.93 225.77 C524.93,225.97 525.07,226.13 525.24,226.13 C525.4,226.13 525.54,225.97 525.54,225.77 C525.54,225.57 525.4,225.41 525.24,225.41 C525.07,225.41 524.93,225.57 524.93,225.77z "/><path id="_R_G_L_7_G_D_74_P_0" fill="#12196b" fill-opacity="1" fill-rule="nonzero" d=" M521.97 223.96 C521.97,223.96 523.39,221.83 525.4,221.44 C527.42,221.06 527.48,222.68 526.74,222.86 C526,223.04 523.6,223.13 521.97,223.96z "/><path id="_R_G_L_7_G_D_75_P_0" fill="#12196b" fill-opacity="1" fill-rule="nonzero" d=" M544.62 212.91 C543.21,209.91 542.11,209.86 542.11,209.86 C542.11,209.86 542.11,201.37 532,202.79 C524.58,204.68 524.4,207.68 517.07,209.65 C515.22,210.25 513.89,210.12 513.89,210.12 C513.89,210.12 514.91,211.88 517.47,213.12 C515.53,213.68 513.41,211.67 513.41,211.67 C513.41,211.67 513.28,214.41 515.92,216.3 C515.53,218.1 515.41,219.75 515.78,223.04 C515.78,223.04 517.12,225.32 517.43,227.63 C517.75,229.94 517.19,231.9 517.67,234.59 C518.14,237.27 521.51,243.04 523.19,244.61 C526.51,247.69 531.12,247.87 535.62,246.6 C540.12,245.34 542.29,237.59 543.16,235.61 C544.02,233.64 543.39,228.68 543.79,227.02 C544.18,225.36 544.49,224.42 545.13,223 C545.13,223 546.61,218.96 544.62,212.91z  M542.34 223.19 C542.26,224.05 542.17,224.91 542.19,225.78 C542.24,227.31 542.25,229.23 542.13,229.85 C541.71,231.94 539.79,236.32 536.09,234.43 C532.38,232.54 525.79,233.12 522.56,234.22 C519.32,235.33 519.72,230.37 519.09,228.54 C518.46,226.7 518.93,225.75 519.09,224.57 C519.24,223.44 521.14,221.94 521.14,218.7 C524.71,219.5 533.77,220.84 538.35,215.1 C538.35,215.1 538.57,219.43 542.06,221.74 C542.14,221.86 542.22,221.95 542.29,222.05 C542.35,222.4 542.38,222.78 542.34,223.19z "/><path id="_R_G_L_7_G_D_76_P_0" fill="#ffffff" fill-opacity="1" fill-rule="nonzero" d=" M525.2 235.67 C525.2,235.67 533.37,236.32 535.91,235.67 C533.07,239.52 528.52,241.41 525.2,235.67z "/><path id="_R_G_L_7_G_D_77_P_0" fill="#e96f24" fill-opacity="1" fill-rule="nonzero" d=" M616.66 347.69 C616.66,347.69 445.5,347.69 445.5,347.69 C445.5,347.69 445.5,257.07 445.5,257.07 C445.5,257.07 616.66,257.07 616.66,257.07 C616.66,257.07 616.66,347.69 616.66,347.69z "/><path id="_R_G_L_7_G_D_78_P_0" fill="#ffffff" fill-opacity="1" fill-rule="nonzero" d=" M478.95 310.03 C478.95,310.03 481.77,306.64 481.77,306.64 C483.21,308.62 484.96,309.69 487.06,309.69 C489.79,309.69 491.2,308.05 491.2,304.78 C491.2,304.78 491.2,291.01 491.2,291.01 C491.2,291.01 481.73,291.01 481.73,291.01 C481.73,291.01 481.73,286.86 481.73,286.86 C481.73,286.86 496.15,286.86 496.15,286.86 C496.15,286.86 496.15,304.51 496.15,304.51 C496.15,310.79 493.03,313.87 487.17,313.87 C483.82,313.87 480.78,312.5 478.95,310.03z "/><path id="_R_G_L_7_G_D_79_P_0" fill="#ffffff" fill-opacity="1" fill-rule="nonzero" d=" M519.77 307.33 C519.77,307.33 506.45,307.33 506.45,307.33 C506.45,307.33 503.83,313.49 503.83,313.49 C503.83,313.49 498.73,313.49 498.73,313.49 C498.73,313.49 510.71,286.86 510.71,286.86 C510.71,286.86 515.58,286.86 515.58,286.86 C515.58,286.86 527.6,313.49 527.6,313.49 C527.6,313.49 522.43,313.49 522.43,313.49 C522.43,313.49 519.77,307.33 519.77,307.33z  M518.13 303.45 C518.13,303.45 513.11,291.81 513.11,291.81 C513.11,291.81 508.13,303.45 508.13,303.45 C508.13,303.45 518.13,303.45 518.13,303.45z "/><path id="_R_G_L_7_G_D_80_P_0" fill="#ffffff" fill-opacity="1" fill-rule="nonzero" d=" M553.93 286.86 C553.93,286.86 542.32,313.49 542.32,313.49 C542.32,313.49 537.45,313.49 537.45,313.49 C537.45,313.49 525.81,286.86 525.81,286.86 C525.81,286.86 531.18,286.86 531.18,286.86 C531.18,286.86 540.04,307.41 540.04,307.41 C540.04,307.41 548.98,286.86 548.98,286.86 C548.98,286.86 553.93,286.86 553.93,286.86z "/><path id="_R_G_L_7_G_D_81_P_0" fill="#ffffff" fill-opacity="1" fill-rule="nonzero" d=" M573.17 307.33 C573.17,307.33 559.86,307.33 559.86,307.33 C559.86,307.33 557.23,313.49 557.23,313.49 C557.23,313.49 552.14,313.49 552.14,313.49 C552.14,313.49 564.12,286.86 564.12,286.86 C564.12,286.86 568.99,286.86 568.99,286.86 C568.99,286.86 581.01,313.49 581.01,313.49 C581.01,313.49 575.83,313.49 575.83,313.49 C575.83,313.49 573.17,307.33 573.17,307.33z  M571.54 303.45 C571.54,303.45 566.51,291.81 566.51,291.81 C566.51,291.81 561.53,303.45 561.53,303.45 C561.53,303.45 571.54,303.45 571.54,303.45z "/><path id="_R_G_L_7_G_D_82_P_0" fill="#ffbaac" fill-opacity="1" fill-rule="nonzero" d=" M616.66 297.03 C616.66,297.03 623.23,303.61 623.07,310.4 C622.92,317.2 614.85,321.37 612.05,319.28 C609.26,317.18 608.1,311.5 612.36,308.42 C615.49,306.17 616.21,305.53 616.21,305.53 C616.21,305.53 616.66,297.03 616.66,297.03z "/><path id="_R_G_L_7_G_D_83_P_0" fill="#ffbaac" fill-opacity="1" fill-rule="nonzero" d=" M444.99 297.03 C444.99,297.03 438.42,303.61 438.58,310.4 C438.73,317.2 446.8,321.37 449.59,319.28 C452.39,317.18 453.55,311.5 449.28,308.42 C446.16,306.17 445.44,305.53 445.44,305.53 C445.44,305.53 444.99,297.03 444.99,297.03z "/></g><g id="_R_G_L_6_G"><path id="_R_G_L_6_G_D_0_P_0" fill="#ffac83" fill-opacity="1" fill-rule="nonzero" d=" M103.64 141.88 C103.64,141.88 99.18,210.84 98.81,236.11 C98.44,261.38 101.23,329.77 101.23,329.77 C101.23,329.77 109.96,329.77 109.96,329.77 C109.96,329.77 120.74,284.8 120,270.67 C119.25,256.55 116.28,243.54 116.28,243.54 C116.28,243.54 126.13,191.68 126.13,191.68 C126.13,191.68 134.31,245.77 138.67,249.86 C143.04,253.95 148.99,266.59 150.47,273.28 C151.96,279.97 169.29,324.93 169.29,324.93 C169.29,324.93 178.25,324.9 178.25,324.9 C178.25,324.9 173.52,281.45 170.92,267.33 C168.32,253.21 157.91,248 156.42,243.54 C154.93,239.08 154.28,187.04 153.17,179.98 C152.05,172.92 162,153.5 148.99,140.12 C135.98,126.73 103.64,141.88 103.64,141.88z "/><path id="_R_G_L_6_G_D_1_P_0" fill="#12196b" fill-opacity="1" fill-rule="nonzero" d=" M156.37 230.53 C155.65,217.82 153.92,184.73 153.17,179.98 C152.05,172.91 162,153.49 148.99,140.11 C135.98,126.73 103.64,141.88 103.64,141.88 C103.64,141.88 97.97,203.46 97.14,230.25 C101.74,233.78 116.43,235.72 123.06,233.74 C123.06,233.74 126.13,191.68 126.13,191.68 C126.13,191.68 127.66,222.84 131.33,235.46 C139.86,236.4 150.56,235.82 156.37,230.53z "/><path id="_R_G_L_6_G_D_2_P_0" fill="#ffac83" fill-opacity="1" fill-rule="nonzero" d=" M63.28 49.82 C61.51,48.84 35.04,25.72 23.69,16.65 C23.6,16.58 23.5,16.5 23.41,16.43 C22.93,16.01 21.95,15.02 21.59,13.55 C21.59,13.55 21.28,4.96 21.33,2.61 C21.37,0.25 18.82,0.39 18.15,3.19 C17.74,4.87 16.85,8.43 16.17,11.09 C14.33,10.58 11.59,9.16 8.42,5.57 C5.42,2.87 0.25,3.66 2.34,10.51 C4.43,17.36 15.69,22.06 17.61,23.63 C28.05,35.13 50.28,61.38 56.33,64.71 C63.77,68.79 100.05,72.82 100.05,72.82 C100.05,72.82 102.13,57.65 102.13,57.65 C102.13,57.65 65.41,51.01 63.28,49.82z "/><path id="_R_G_L_6_G_D_3_P_0" fill="#8899ff" fill-opacity="1" fill-rule="nonzero" d=" M84.77 50.95 C84.77,50.95 142.3,61.51 149.82,63.18 C157.35,64.85 151.77,98.86 150.94,98.3 C150.1,97.74 150.36,123.29 152.03,133.04 C153.7,142.8 143.13,145.41 139.23,146.53 C135.33,147.64 106.62,146.3 103.55,146.53 C95.74,147.09 95.73,133.14 98.78,119.21 C102.99,99.97 95.4,82.27 95.4,82.27 C95.4,82.27 77.3,74.8 77.3,74.8 C77.3,74.8 81.15,60.98 84.77,50.95z "/><path id="_R_G_L_6_G_D_4_P_0" fill="#352c23" fill-opacity="1" fill-rule="nonzero" d=" M106.84 35.54 C106.84,35.54 89.8,26.56 94.59,20.09 C99.37,13.62 106.67,14.32 106.67,14.32 C104.69,10.16 120.51,8 123.63,12.88 C126.21,9 135.29,15.03 133.96,22.62 C139.87,21.91 150.21,34.08 134.47,49.68 C129.82,54.29 126.31,51.11 126.31,51.11 C126.31,51.11 106.84,35.54 106.84,35.54z "/><path id="_R_G_L_6_G_D_5_P_0" fill="#ffac83" fill-opacity="1" fill-rule="nonzero" d=" M118.86 26.73 C118.86,26.73 111.17,27.47 107.69,29.61 C104.22,31.75 106.43,37.51 105.36,39.38 C104.29,41.26 102.19,42.44 102.13,43.13 C102.06,43.82 104.34,44.83 104.72,44.97 C105.1,45.1 106.46,52.59 108.44,55.29 C110.43,57.99 113.41,55.78 114.31,55.4 C115.2,55.02 117.6,65.69 117.28,67.63 C116.96,69.58 127.71,69.04 130.52,67.2 C133.34,65.36 135.14,61.13 134.76,60.24 C134.39,59.34 127.01,49.63 126.27,48.44 C125.53,47.24 126.44,43.97 126.33,43.69 C126.23,43.42 130.84,40.1 129.72,37.29 C128.61,34.47 125.35,37.46 124.51,38.93 C123.71,40.43 123.99,41.29 123.99,41.29 C123.99,41.29 122.18,41.57 122.18,41.57 C122.18,41.57 122.6,37.26 121.82,35.73 C121.04,34.2 116.06,29.76 118.86,26.73z "/><path id="_R_G_L_6_G_D_6_P_0" fill="#4a50ac" fill-opacity="1" fill-rule="nonzero" d=" M100.29 324.98 C100.29,324.98 103.78,324.14 105.93,326.95 C107.19,328.03 111,325.31 111,325.31 C111,325.31 117.22,332.91 114.12,341.26 C102.41,343.17 73.75,342.23 72.31,341.26 C70.88,340.3 72.79,332.42 82.47,332.54 C92.14,332.66 100.29,324.98 100.29,324.98z "/><path id="_R_G_L_6_G_D_7_P_0" fill="#e6e6ee" fill-opacity="1" fill-rule="nonzero" d=" M73.39 336.96 C73.28,336.89 73.2,336.78 73.14,336.64 C71.72,338.67 71.61,340.79 72.31,341.26 C73.75,342.23 102.41,343.17 114.12,341.26 C114.66,339.81 114.9,338.37 114.96,337 C103.12,338.85 74.81,337.92 73.39,336.96z "/><path id="_R_G_L_6_G_D_8_P_0" fill="#4a50ac" fill-opacity="1" fill-rule="nonzero" d=" M179.05 326.63 C179.05,326.63 178.14,321.09 173.32,320.18 C168.5,319.28 168.66,320.01 166.15,323.95 C163.64,327.89 154.33,334.64 153.37,339.89 C152.42,345.15 168.84,344.02 174.57,341.96 C180.3,339.89 179.95,339.89 180.66,337.74 C181.38,335.59 179.05,326.63 179.05,326.63z "/><path id="_R_G_L_6_G_D_9_P_0" fill="#e6e6ee" fill-opacity="1" fill-rule="nonzero" d=" M174.57 337.78 C169.76,339.51 157.42,340.58 154.14,337.77 C153.77,338.5 153.49,339.21 153.37,339.89 C152.42,345.15 168.84,344.02 174.57,341.96 C180.3,339.89 179.95,339.89 180.66,337.74 C180.9,337.02 180.8,335.54 180.56,333.88 C179.97,335.71 180,335.82 174.57,337.78z "/><path id="_R_G_L_6_G_D_10_P_0" fill="#ffac83" fill-opacity="1" fill-rule="nonzero" d=" M96.1 110.22 C94.03,110.72 57.14,111.7 41.91,112.78 C41.91,112.78 41.91,112.78 41.91,112.78 C41.79,112.79 41.66,112.8 41.54,112.8 C40.88,112.83 39.42,112.76 38.09,111.89 C38.09,111.89 31.73,105.47 30.09,103.62 C28.45,101.76 26.58,103.69 28.05,106.33 C28.94,107.92 30.79,111.3 32.15,113.84 C30.36,114.76 27.24,115.61 22.23,115.1 C18,115.14 14.57,119.43 21.06,123.23 C27.54,127.03 39.58,122.65 42.18,122.5 C42.18,122.5 42.18,122.5 42.18,122.5 C58.43,123.95 94.29,128.4 101.32,126.66 C109.97,124.52 140.86,101.82 140.86,101.82 C140.86,101.82 131.66,88.62 131.66,88.62 C131.66,88.62 98.59,109.62 96.1,110.22z "/><path id="_R_G_L_6_G_D_11_P_0" fill="#7b94ff" fill-opacity="1" fill-rule="nonzero" d=" M126.37 87.38 C126.37,87.38 142.16,69.95 145.99,66.56 C149.82,63.18 150.15,62.43 151.17,63.95 C152.2,65.47 163.42,74.01 160.21,85.68 C156.99,97.36 139.06,107.84 139.06,107.84 C139.06,107.84 126.37,87.38 126.37,87.38z "/></g><g id="_R_G_L_5_G"><path id="_R_G_L_5_G_D_0_P_0" fill="#ffac83" fill-opacity="1" fill-rule="nonzero" d=" M43.49 53.5 C43.49,53.5 45.59,49.89 45.59,43.11 C54.63,42.36 61.56,42.21 61.56,42.21 C61.56,42.21 60.51,50.04 65.63,54.26 C55.54,58.93 43.49,53.5 43.49,53.5z "/><path id="_R_G_L_5_G_D_1_P_0" fill="#ffac83" fill-opacity="1" fill-rule="nonzero" d=" M59 8.01 C59,8.01 63.07,9.82 64.73,14.94 C66.38,20.06 65.48,21.72 65.63,22.47 C65.78,23.22 68.64,29.4 68.64,29.4 C68.64,29.4 66.54,30.76 66.54,30.76 C66.54,30.76 65.78,36.48 65.63,38.14 C65.48,39.79 63.52,36.33 61.56,42.21 C55.54,47.33 45.6,43.11 45.6,43.11 C45.6,43.11 41.23,32.26 39.87,22.62 C38.51,12.98 48.61,1.68 59,8.01z "/><path id="_R_G_L_5_G_D_2_P_0" fill="#352c23" fill-opacity="1" fill-rule="nonzero" d=" M41.15 8.5 C41.15,8.5 45.22,0.25 58.32,2.62 C71.43,5 75.72,2.72 76.06,6.17 C76.4,9.63 69.51,11.21 69.51,11.21 C71.09,14.37 65.1,19.46 63.18,19.35 C62.39,21.49 61.94,21.72 61.71,23.75 C61.49,25.79 62.28,28.38 62.28,28.38 C62.28,28.38 60.36,28.38 60.36,28.38 C60.36,28.38 59,23.07 56.52,24.66 C54.03,26.24 55.84,30.87 55.95,33.36 C56.07,35.84 54.34,40.66 49.96,42.21 C45.59,43.75 40.47,42.51 37.54,36.41 C34.6,30.3 29.97,12.57 41.15,8.5z "/><path id="_R_G_L_5_G_D_3_P_0" fill="#f2c897" fill-opacity="1" fill-rule="nonzero" d=" M66.78 308.72 C66.78,308.72 67.44,317.68 67.44,317.68 C67.44,317.68 75.19,317.68 75.19,317.68 C75.19,317.68 75.19,307.63 75.19,307.63 C75.19,307.63 66.78,308.72 66.78,308.72z "/><path id="_R_G_L_5_G_D_4_P_0" fill="#ff6d5a" fill-opacity="1" fill-rule="nonzero" d=" M65.91 312.66 C65.91,312.66 65.73,325.03 65.91,327.34 C73.41,327.46 84.8,327.7 85.16,327.34 C85.52,326.97 86.19,317.82 79.83,318.99 C76.44,319.08 76.29,312.66 76.29,312.66 C76.29,312.66 65.91,312.66 65.91,312.66z "/><path id="_R_G_L_5_G_D_5_P_0" fill="#f2f2f2" fill-opacity="1" fill-rule="nonzero" d=" M65.83 323.61 C65.84,325.3 65.86,326.7 65.91,327.34 C73.42,327.46 84.8,327.7 85.16,327.34 C85.31,327.18 85.52,325.46 85.23,323.61 C85.23,323.61 65.83,323.61 65.83,323.61z "/><path id="_R_G_L_5_G_D_6_P_0" fill="#f2c897" fill-opacity="1" fill-rule="nonzero" d=" M42.34 308.72 C42.34,308.72 41.68,317.68 41.68,317.68 C41.68,317.68 33.93,317.68 33.93,317.68 C33.93,317.68 33.93,307.63 33.93,307.63 C33.93,307.63 42.34,308.72 42.34,308.72z "/><path id="_R_G_L_5_G_D_7_P_0" fill="#ff6d5a" fill-opacity="1" fill-rule="nonzero" d=" M43.21 312.66 C43.21,312.66 43.39,325.03 43.21,327.34 C35.7,327.46 24.32,327.7 23.96,327.34 C23.59,326.97 22.93,317.82 29.28,318.99 C32.67,319.08 32.83,312.66 32.83,312.66 C32.83,312.66 43.21,312.66 43.21,312.66z "/><path id="_R_G_L_5_G_D_8_P_0" fill="#f2f2f2" fill-opacity="1" fill-rule="nonzero" d=" M23.88 323.72 C23.61,325.53 23.81,327.19 23.96,327.34 C24.32,327.7 35.7,327.46 43.21,327.34 C43.26,326.72 43.28,325.36 43.29,323.72 C43.29,323.72 23.88,323.72 23.88,323.72z "/><path id="_R_G_L_5_G_D_9_P_0" fill="#12196b" fill-opacity="1" fill-rule="nonzero" d=" M81.23 218.21 C80.87,182.97 77.68,141.34 77.68,141.34 C77.68,141.34 54.8,141.34 54.8,141.34 C54.8,141.34 32.02,143.87 32.02,143.87 C32.02,143.87 28.74,182.97 28.38,218.21 C28.01,253.45 31.46,310.18 31.46,310.18 C31.46,310.18 44.36,310.18 44.36,310.18 C44.36,310.18 50.17,256.72 49.08,232.92 C47.99,209.13 54.8,176.94 54.8,176.94 C54.8,176.94 61.61,209.13 60.52,232.92 C59.43,256.72 65.25,310.18 65.25,310.18 C65.25,310.18 78.14,310.18 78.14,310.18 C78.14,310.18 81.59,253.45 81.23,218.21z "/><path id="_R_G_L_5_G_D_10_P_0" fill="#f45145" fill-opacity="1" fill-rule="nonzero" d=" M3.65 120.76 C3.65,120.76 25.79,93.71 50.17,82.11 C54.81,83.51 56.57,89.71 55.99,90.44 C55.4,91.16 26.07,120.87 26.07,120.87 C26.07,120.87 11.41,131.6 3.65,120.76z "/><path id="_R_G_L_5_G_D_11_P_0" fill="#e96f24" fill-opacity="1" fill-rule="nonzero" d=" M43.27 52.68 C43.27,52.68 57.26,53.95 63.98,52.68 C73.24,55.4 86.8,54.93 86.8,54.93 C86.8,54.93 84.95,80.49 85.13,83.22 C82.04,91.21 80.14,125.72 81.59,133.71 C83.05,141.71 76.51,145.7 71.06,147.16 C65.61,148.61 33.28,147.88 31.1,147.16 C28.92,146.43 25.29,133.72 26.01,117.01 C26.74,100.3 24.14,87.48 24.14,87.48 C24.14,87.48 25.47,63.22 24.92,59.4 C36.73,55.04 43.27,52.68 43.27,52.68z "/><path id="_R_G_L_5_G_D_12_P_0" fill="#e96f24" fill-opacity="1" fill-rule="nonzero" d=" M24.92 59.4 C24.92,59.4 5.78,105.29 3.41,114.06 C0.25,125.81 14.11,127.63 17.12,122.96 C20.13,118.29 25.7,99.78 25.7,99.78 C25.7,99.78 32.73,65.6 24.92,59.4z "/><path id="_R_G_L_5_G_D_13_P_0" fill="#ffac83" fill-opacity="1" fill-rule="nonzero" d=" M174.56 48.89 C174.56,48.89 177.28,46.86 178.74,43.81 C180.21,40.76 181.15,37.14 181.15,37.14 C181.15,37.14 186.23,37.18 189.11,37.18 C192.32,37.18 199.65,29.12 203.04,30.36 C206.43,31.6 203.26,39.4 196.94,45.16 C190.61,50.92 181.8,56.01 181.8,56.01 C181.8,56.01 174.56,48.89 174.56,48.89z "/><path id="_R_G_L_5_G_D_14_P_0" fill="#e96f24" fill-opacity="1" fill-rule="nonzero" d=" M86.8 54.93 C86.8,54.93 125.38,75.86 132.76,72.55 C140.14,69.23 172.87,48.32 172.87,48.32 C172.87,48.32 180.33,49 184.62,56.63 C159.99,96.33 150.05,96.1 140.11,100.85 C130.16,105.59 95.19,89.69 83.69,84.39 C76.99,69.78 86.8,54.93 86.8,54.93z "/></g><g id="_R_G_L_4_G"><path id="_R_G_L_4_G_D_0_P_0" fill="#b6d15a" fill-opacity="1" fill-rule="nonzero" d=" M84.78 84.44 C84.78,84.44 78.97,56.13 85.49,48.61 C92.01,41.09 99.43,54.08 101.59,59.38 C103.74,64.68 107.37,80.44 107.37,80.44 C107.37,80.44 84.78,84.44 84.78,84.44z "/><path id="_R_G_L_4_G_D_1_P_0" fill="#a4c24f" fill-opacity="1" fill-rule="nonzero" d=" M154.07 228.25 C154.07,228.25 153.2,235.65 154.26,238.84 C155.32,242.03 180.21,250.55 184.66,251.08 C189.1,251.62 189.97,246.21 185.19,242.76 C180.42,239.3 166.98,228.51 165.65,225.6 C164.33,222.69 154.07,228.25 154.07,228.25z "/><path id="_R_G_L_4_G_D_2_P_0" fill="#e6e6ee" fill-opacity="1" fill-rule="nonzero" d=" M188.11 246.43 C187.81,247.46 186.92,248.09 185.36,247.9 C181.23,247.4 157.9,239.46 153.78,235.78 C153.85,236.95 152.57,238.81 152.83,239.62 C153.9,242.82 180.31,251.21 184.75,251.75 C187.77,252.12 189.04,249.07 188.11,246.43z "/><path id="_R_G_L_4_G_D_3_P_0" fill="#12196b" fill-opacity="1" fill-rule="nonzero" d=" M53.44 103.36 C53.44,103.36 47.67,118.12 63.3,129.19 C78.93,140.25 126.26,153.73 126.36,157.59 C126.81,175.91 152.87,229.18 152.87,229.18 C152.87,229.18 166.82,225.31 166.82,225.31 C166.82,225.31 146.6,155.12 144.63,145.34 C142.67,135.57 78.3,103.55 78.3,103.55 C78.3,103.55 68.62,96.68 68.62,96.68 C68.62,96.68 56.84,94.57 53.44,103.36z "/><path id="_R_G_L_4_G_D_4_P_0" fill="#a4c24f" fill-opacity="1" fill-rule="nonzero" d=" M82.77 34.16 C82.77,34.16 69.65,28.76 55.82,30.78 C41.99,32.8 32.86,84.93 31.42,98.45 C31.42,98.45 29.97,111.96 29.97,111.96 C29.97,111.96 29.68,116.57 46.11,107.07 C62.53,97.56 78.3,103.55 78.3,103.55 C78.3,103.55 97.84,56.92 97.98,53.14 C98.11,49.36 82.77,34.16 82.77,34.16z "/><path id="_R_G_L_4_G_D_5_P_0" fill="#352c23" fill-opacity="1" fill-rule="nonzero" d=" M110.44 33.77 C110.44,33.77 127.57,37.16 127.17,29.1 C126.78,21.04 116.6,16.36 116.6,16.36 C120.56,13.99 114.24,6.85 108.92,9.19 C108.93,4.51 97.05,0.25 96.59,12.15 C92.06,8.26 87.38,12.59 86.27,19.06 C85.16,25.53 85.53,35.94 85.53,35.94 C85.53,35.94 110.44,33.77 110.44,33.77z "/><path id="_R_G_L_4_G_D_6_P_0" fill="#ffac83" fill-opacity="1" fill-rule="nonzero" d=" M105.31 19.73 C105.31,19.73 111.32,24.63 113.03,28.35 C114.74,32.07 109.69,35.64 109.54,37.8 C109.39,39.97 110.48,42.12 110.15,42.73 C109.82,43.34 107.36,42.92 106.96,42.82 C106.57,42.72 101.27,48.21 98.11,49.36 C94.96,50.51 93.7,47 93.16,46.19 C92.62,45.38 83.82,52.07 83,53.87 C82.18,55.68 75.26,50.02 73.81,46.98 C70.49,40 75.81,35.09 76.62,34.55 C77.43,34.01 83.04,32.44 84.33,31.86 C85.61,31.27 89.4,29.9 89.64,29.73 C89.88,29.56 87.88,24.22 90.38,22.5 C92.87,20.77 93.93,25.07 93.81,26.76 C93.64,28.47 92.93,29.02 92.93,29.02 C92.93,29.02 94.29,30.27 94.29,30.27 C94.29,30.27 96.34,26.44 97.84,25.59 C99.34,24.75 106.32,29.1 105.31,19.73z "/><path id="_R_G_L_4_G_D_7_P_0" fill="#a4c24f" fill-opacity="1" fill-rule="nonzero" d=" M97.62 252.51 C97.62,252.51 95.13,259.54 95.46,262.89 C95.78,266.24 118.15,280.07 122.36,281.58 C126.58,283.09 128.63,278.01 124.74,273.58 C120.85,269.15 110.15,255.65 109.5,252.51 C108.86,249.38 97.62,252.51 97.62,252.51z "/><path id="_R_G_L_4_G_D_8_P_0" fill="#e6e6ee" fill-opacity="1" fill-rule="nonzero" d=" M124.56 279.6 C120.67,278.2 99.18,264.56 95.66,259.84 C94.49,260.43 94.16,262.27 94.24,263.11 C94.56,266.46 118.15,280.67 122.37,282.18 C124.63,282.99 126.25,281.3 126.69,279.43 C126.2,279.83 125.5,279.94 124.56,279.6z "/><path id="_R_G_L_4_G_D_9_P_0" fill="#12196b" fill-opacity="1" fill-rule="nonzero" d=" M32.68 111.29 C32.68,111.29 25.79,133.09 37.89,147.93 C50,162.77 88.46,172.05 88.3,175.91 C87.39,196.89 96.54,253.46 96.54,253.46 C96.54,253.46 110.82,253.46 110.82,253.46 C110.82,253.46 109.79,183.57 110.51,173.63 C111.23,163.69 71.46,126.9 71.46,126.9 C71.46,126.9 70.52,101.91 70.52,101.91 C70.52,101.91 42.62,99.34 32.68,111.29z "/><path id="_R_G_L_4_G_D_10_P_0" fill="#ffac83" fill-opacity="1" fill-rule="nonzero" d=" M49.27 131.1 C46.98,131.67 45.01,131.29 44.06,131.04 C43.85,130.98 43.64,130.92 43.45,130.85 C41.96,130.3 41.03,129.16 40.65,128.6 C40.59,128.5 23.12,90.56 22.29,88.59 C21.29,86.23 43.58,63.04 43.58,63.04 C43.58,63.04 28.89,52.55 28.89,52.55 C28.89,52.55 0.25,82.87 3.67,91.13 C6.45,97.84 29.97,133.49 29.97,133.49 C31.4,135.68 37.5,148.37 44.43,151.35 C51.36,154.32 52.78,149 50.29,145.55 C46.83,141.74 45.69,138.66 45.39,136.68 C45.67,136.21 46.37,135.58 47.4,135.41 C48.91,135.14 51.83,134.88 53.04,132.97 C54.26,131.07 53.73,130 49.27,131.1z "/><path id="_R_G_L_4_G_D_11_P_0" fill="#b6d15a" fill-opacity="1" fill-rule="nonzero" d=" M24.99 52.72 C24.99,52.72 43.54,31.38 53.47,30.8 C63.41,30.21 59.29,44.6 57,49.84 C54.71,55.08 45.97,68.68 45.97,68.68 C45.97,68.68 24.99,52.72 24.99,52.72z "/><path id="_R_G_L_4_G_D_12_P_0" fill="#e96f24" fill-opacity="1" fill-rule="nonzero" d=" M151.65 149.46 C151.65,149.46 44.31,149.46 44.31,149.46 C42.52,149.46 41.06,148 41.06,146.21 C41.06,146.21 41.06,62.65 41.06,62.65 C41.06,60.85 42.52,59.4 44.31,59.4 C44.31,59.4 151.65,59.4 151.65,59.4 C153.44,59.4 154.9,60.85 154.9,62.65 C154.9,62.65 154.9,146.21 154.9,146.21 C154.9,148 153.44,149.46 151.65,149.46z "/><path id="_R_G_L_4_G_D_13_P_0" fill="#ffffff" fill-opacity="1" fill-rule="nonzero" d=" M121.45 91.79 C121.45,104.66 98.15,136.88 98.15,136.88 C98.15,136.88 74.86,104.66 74.86,91.79 C74.86,78.93 85.29,68.5 98.15,68.5 C111.02,68.5 121.45,78.93 121.45,91.79z "/><path id="_R_G_L_4_G_D_14_P_0" fill="#e96f24" fill-opacity="1" fill-rule="nonzero" d=" M108.85 90.9 C108.85,96.8 104.06,101.59 98.15,101.59 C92.25,101.59 87.46,96.8 87.46,90.9 C87.46,84.99 92.25,80.21 98.15,80.21 C104.06,80.21 108.85,84.99 108.85,90.9z "/><path id="_R_G_L_4_G_D_15_P_0" fill="#ffac83" fill-opacity="1" fill-rule="nonzero" d=" M154.88 104.15 C154.88,104.15 161.26,110.54 161.11,117.14 C160.96,123.74 153.12,127.79 150.41,125.75 C147.7,123.72 146.57,118.21 150.71,115.22 C153.75,113.02 154.44,112.4 154.44,112.4 C154.44,112.4 154.88,104.15 154.88,104.15z "/><path id="_R_G_L_4_G_D_16_P_0" fill="#ffac83" fill-opacity="1" fill-rule="nonzero" d=" M49.27 131.1 C46.98,131.67 45.01,131.29 44.06,131.04 C43.85,130.98 43.64,130.92 43.45,130.85 C41.96,130.29 41.03,129.16 40.65,128.6 C40.64,128.58 39.31,125.71 37.39,121.53 C37.39,121.53 22.18,121.53 22.18,121.53 C26.56,128.31 29.97,133.49 29.97,133.49 C31.4,135.68 37.5,148.37 44.43,151.35 C51.36,154.32 52.78,149 50.29,145.55 C46.83,141.74 45.69,138.66 45.39,136.68 C45.67,136.21 46.37,135.58 47.4,135.41 C48.91,135.14 51.83,134.88 53.04,132.97 C54.26,131.07 53.73,130 49.27,131.1z "/></g><g id="_R_G_L_3_G" transform=" translate(686.537, 907.36)"><path id="_R_G_L_3_G_D_0_P_0" fill="#e96f24" fill-opacity="1" fill-rule="nonzero" d=" M170.07 138.54 C170.07,138.54 5.24,138.54 5.24,138.54 C2.48,138.54 0.25,136.31 0.25,133.55 C0.25,133.55 0.25,5.24 0.25,5.24 C0.25,2.48 2.48,0.25 5.24,0.25 C5.24,0.25 170.07,0.25 170.07,0.25 C172.82,0.25 175.05,2.48 175.05,5.24 C175.05,5.24 175.05,133.55 175.05,133.55 C175.05,136.31 172.82,138.54 170.07,138.54z "/><path id="_R_G_L_3_G_D_1_P_0" fill="#ffffff" fill-opacity="1" fill-rule="nonzero" d=" M50.11 86.44 C50.11,86.44 55.01,80.55 55.01,80.55 C57.52,84 60.57,85.85 64.21,85.85 C68.97,85.85 71.42,83 71.42,77.31 C71.42,77.31 71.42,53.35 71.42,53.35 C71.42,53.35 54.94,53.35 54.94,53.35 C54.94,53.35 54.94,46.13 54.94,46.13 C54.94,46.13 80.03,46.13 80.03,46.13 C80.03,46.13 80.03,76.85 80.03,76.85 C80.03,87.77 74.6,93.13 64.41,93.13 C58.58,93.13 53.29,90.75 50.11,86.44z "/><path id="_R_G_L_3_G_D_2_P_0" fill="#ffffff" fill-opacity="1" fill-rule="nonzero" d=" M88.17 87.57 C88.17,87.57 91.15,80.88 91.15,80.88 C94.86,83.86 100.75,85.98 106.44,85.98 C113.66,85.98 116.7,83.4 116.7,79.96 C116.7,69.96 89.17,76.51 89.17,59.3 C89.17,51.82 95.12,45.47 107.83,45.47 C113.39,45.47 119.22,46.93 123.26,49.57 C123.26,49.57 120.54,56.26 120.54,56.26 C116.37,53.81 111.8,52.62 107.77,52.62 C100.62,52.62 97.7,55.4 97.7,58.91 C97.7,68.77 125.17,62.35 125.17,79.36 C125.17,86.77 119.15,93.13 106.44,93.13 C99.23,93.13 92.01,90.88 88.17,87.57z "/></g><g id="_R_G_L_2_G" transform=" translate(808.853, 162.064)"><path id="_R_G_L_2_G_D_0_P_0" fill="#e96f24" fill-opacity="1" fill-rule="nonzero" d=" M165.22 90.87 C165.22,90.87 6.44,90.87 6.44,90.87 C3.02,90.87 0.25,88.1 0.25,84.68 C0.25,84.68 0.25,6.44 0.25,6.44 C0.25,3.02 3.02,0.25 6.44,0.25 C6.44,0.25 165.22,0.25 165.22,0.25 C168.64,0.25 171.41,3.02 171.41,6.44 C171.41,6.44 171.41,84.68 171.41,84.68 C171.41,88.1 168.64,90.87 165.22,90.87z "/><path id="_R_G_L_2_G_D_1_P_0" fill="#ffffff" fill-opacity="1" fill-rule="nonzero" d=" M7.15 45.71 C7.15,27.97 20.73,15.15 38.98,15.15 C48.66,15.15 56.97,18.64 62.49,25.09 C62.49,25.09 55.36,31.79 55.36,31.79 C51.03,27.12 45.68,24.83 39.49,24.83 C27.18,24.83 18.27,33.49 18.27,45.71 C18.27,57.94 27.18,66.59 39.49,66.59 C45.68,66.59 51.03,64.3 55.36,59.55 C55.36,59.55 62.49,66.34 62.49,66.34 C56.97,72.79 48.66,76.27 38.89,76.27 C20.73,76.27 7.15,63.45 7.15,45.71z "/><path id="_R_G_L_2_G_D_2_P_0" fill="#ffffff" fill-opacity="1" fill-rule="nonzero" d=" M109.35 49.96 C109.35,49.96 94.33,49.96 94.33,49.96 C94.33,49.96 94.33,64.81 94.33,64.81 C94.33,64.81 85.24,64.81 85.24,64.81 C85.24,64.81 85.24,49.96 85.24,49.96 C85.24,49.96 70.22,49.96 70.22,49.96 C70.22,49.96 70.22,41.47 70.22,41.47 C70.22,41.47 85.24,41.47 85.24,41.47 C85.24,41.47 85.24,26.61 85.24,26.61 C85.24,26.61 94.33,26.61 94.33,26.61 C94.33,26.61 94.33,41.47 94.33,41.47 C94.33,41.47 109.35,41.47 109.35,41.47 C109.35,41.47 109.35,49.96 109.35,49.96z "/><path id="_R_G_L_2_G_D_3_P_0" fill="#ffffff" fill-opacity="1" fill-rule="nonzero" d=" M159.86 49.96 C159.86,49.96 144.83,49.96 144.83,49.96 C144.83,49.96 144.83,64.81 144.83,64.81 C144.83,64.81 135.75,64.81 135.75,64.81 C135.75,64.81 135.75,49.96 135.75,49.96 C135.75,49.96 120.73,49.96 120.73,49.96 C120.73,49.96 120.73,41.47 120.73,41.47 C120.73,41.47 135.75,41.47 135.75,41.47 C135.75,41.47 135.75,26.61 135.75,26.61 C135.75,26.61 144.83,26.61 144.83,26.61 C144.83,26.61 144.83,41.47 144.83,41.47 C144.83,41.47 159.86,41.47 159.86,41.47 C159.86,41.47 159.86,49.96 159.86,49.96z "/></g><g id="_R_G_L_1_G"><path id="_R_G_L_1_G_D_0_P_0" fill="#e96f24" fill-opacity="1" fill-rule="nonzero" d=" M180.07 99.03 C180.07,99.03 7,99.03 7,99.03 C3.27,99.03 0.25,96.01 0.25,92.28 C0.25,92.28 0.25,7 0.25,7 C0.25,3.27 3.27,0.25 7,0.25 C7,0.25 180.07,0.25 180.07,0.25 C183.8,0.25 186.82,3.27 186.82,7 C186.82,7 186.82,92.28 186.82,92.28 C186.82,96.01 183.8,99.03 180.07,99.03z "/><path id="_R_G_L_1_G_D_1_P_0" fill="#ffffff" fill-opacity="1" fill-rule="nonzero" d=" M61.7 29.94 C61.7,29.94 61.7,64.05 61.7,64.05 C61.7,64.05 55.36,64.05 55.36,64.05 C55.36,64.05 55.36,49.43 55.36,49.43 C55.36,49.43 37.73,49.43 37.73,49.43 C37.73,49.43 37.73,64.05 37.73,64.05 C37.73,64.05 31.39,64.05 31.39,64.05 C31.39,64.05 31.39,29.94 31.39,29.94 C31.39,29.94 37.73,29.94 37.73,29.94 C37.73,29.94 37.73,44.03 37.73,44.03 C37.73,44.03 55.36,44.03 55.36,44.03 C55.36,44.03 55.36,29.94 55.36,29.94 C55.36,29.94 61.7,29.94 61.7,29.94z "/><path id="_R_G_L_1_G_D_2_P_0" fill="#ffffff" fill-opacity="1" fill-rule="nonzero" d=" M77.78 35.3 C77.78,35.3 66.47,35.3 66.47,35.3 C66.47,35.3 66.47,29.95 66.47,29.95 C66.47,29.95 95.42,29.95 95.42,29.95 C95.42,29.95 95.42,35.3 95.42,35.3 C95.42,35.3 84.11,35.3 84.11,35.3 C84.11,35.3 84.11,64.05 84.11,64.05 C84.11,64.05 77.78,64.05 77.78,64.05 C77.78,64.05 77.78,35.3 77.78,35.3z "/><path id="_R_G_L_1_G_D_3_P_0" fill="#ffffff" fill-opacity="1" fill-rule="nonzero" d=" M131.52 64.05 C131.52,64.05 131.47,41.44 131.47,41.44 C131.47,41.44 120.26,60.15 120.26,60.15 C120.26,60.15 117.44,60.15 117.44,60.15 C117.44,60.15 106.23,41.74 106.23,41.74 C106.23,41.74 106.23,64.05 106.23,64.05 C106.23,64.05 100.19,64.05 100.19,64.05 C100.19,64.05 100.19,29.95 100.19,29.95 C100.19,29.95 105.4,29.95 105.4,29.95 C105.4,29.95 118.95,52.55 118.95,52.55 C118.95,52.55 132.25,29.95 132.25,29.95 C132.25,29.95 137.46,29.95 137.46,29.95 C137.46,29.95 137.51,64.05 137.51,64.05 C137.51,64.05 131.52,64.05 131.52,64.05z "/><path id="_R_G_L_1_G_D_4_P_0" fill="#ffffff" fill-opacity="1" fill-rule="nonzero" d=" M146.72 29.94 C146.72,29.94 153.05,29.94 153.05,29.94 C153.05,29.94 153.05,58.69 153.05,58.69 C153.05,58.69 170.89,58.69 170.89,58.69 C170.89,58.69 170.89,64.05 170.89,64.05 C170.89,64.05 146.72,64.05 146.72,64.05 C146.72,64.05 146.72,29.94 146.72,29.94z "/></g><g id="_R_G_L_0_G" transform=" translate(185.042, 586.216)"><path id="_R_G_L_0_G_D_0_P_0" fill="#e96f24" fill-opacity="1" fill-rule="nonzero" d=" M170.07 138.54 C170.07,138.54 5.24,138.54 5.24,138.54 C2.48,138.54 0.25,136.31 0.25,133.55 C0.25,133.55 0.25,5.24 0.25,5.24 C0.25,2.48 2.48,0.25 5.24,0.25 C5.24,0.25 170.07,0.25 170.07,0.25 C172.82,0.25 175.05,2.48 175.05,5.24 C175.05,5.24 175.05,133.55 175.05,133.55 C175.05,136.31 172.82,138.54 170.07,138.54z "/><path id="_R_G_L_0_G_D_1_P_0" fill="#ffffff" fill-opacity="1" fill-rule="nonzero" d=" M56.72 62.61 C56.72,72.81 49.18,79.09 37,79.09 C37,79.09 26.54,79.09 26.54,79.09 C26.54,79.09 26.54,92.47 26.54,92.47 C26.54,92.47 17.93,92.47 17.93,92.47 C17.93,92.47 17.93,46.13 17.93,46.13 C17.93,46.13 37,46.13 37,46.13 C49.18,46.13 56.72,52.35 56.72,62.61z  M48.05 62.61 C48.05,56.79 44.15,53.41 36.6,53.41 C36.6,53.41 26.54,53.41 26.54,53.41 C26.54,53.41 26.54,71.81 26.54,71.81 C26.54,71.81 36.6,71.81 36.6,71.81 C44.15,71.81 48.05,68.44 48.05,62.61z "/><path id="_R_G_L_0_G_D_2_P_0" fill="#ffffff" fill-opacity="1" fill-rule="nonzero" d=" M106.5 46.13 C106.5,46.13 106.5,92.47 106.5,92.47 C106.5,92.47 97.9,92.47 97.9,92.47 C97.9,92.47 97.9,72.61 97.9,72.61 C97.9,72.61 73.94,72.61 73.94,72.61 C73.94,72.61 73.94,92.47 73.94,92.47 C73.94,92.47 65.33,92.47 65.33,92.47 C65.33,92.47 65.33,46.13 65.33,46.13 C65.33,46.13 73.94,46.13 73.94,46.13 C73.94,46.13 73.94,65.26 73.94,65.26 C73.94,65.26 97.9,65.26 97.9,65.26 C97.9,65.26 97.9,46.13 97.9,46.13 C97.9,46.13 106.5,46.13 106.5,46.13z "/><path id="_R_G_L_0_G_D_3_P_0" fill="#ffffff" fill-opacity="1" fill-rule="nonzero" d=" M157.74 62.61 C157.74,72.81 150.2,79.09 138.02,79.09 C138.02,79.09 127.56,79.09 127.56,79.09 C127.56,79.09 127.56,92.47 127.56,92.47 C127.56,92.47 118.95,92.47 118.95,92.47 C118.95,92.47 118.95,46.13 118.95,46.13 C118.95,46.13 138.02,46.13 138.02,46.13 C150.2,46.13 157.74,52.35 157.74,62.61z  M149.07 62.61 C149.07,56.79 145.17,53.41 137.62,53.41 C137.62,53.41 127.56,53.41 127.56,53.41 C127.56,53.41 127.56,71.81 127.56,71.81 C127.56,71.81 137.62,71.81 137.62,71.81 C145.17,71.81 149.07,68.44 149.07,62.61z "/></g></g><g id="time_group"/></svg>